<svg width="16" height="17" viewBox="0 0 16 17" fill="none" xmlns="http://www.w3.org/2000/svg">
<path xmlns="http://www.w3.org/2000/svg" d="M11.33365 12.5L5.6203 12.5C5.251 12.5 4.95365 12.202 4.95365 11.8333C4.95365 11.4647 5.251 11.1667 5.6203 11.1667L9.72432 11.1667L3.529 4.97133C3.269 4.71133 3.269 4.28933 3.529 4.02867C3.659 3.89867 3.829 3.83333 4.0003 3.83333C4.1717 3.83333 4.3417 3.89867 4.4717 4.02867L10.66698 10.224L10.66698 6.11933C10.66698 5.75 10.965 5.45267 11.33365 5.45267C11.70232 5.45267 12.00032 5.75 12.00032 6.11933L12.00032 11.8333C12.00032 12.202 11.70232 12.5 11.33365 12.5Z" fill="#F4212E"/>
</svg>
