<svg width="24" height="24" viewBox="0 0 24 24" fill="none" xmlns="http://www.w3.org/2000/svg">
<path fill-rule="evenodd" clip-rule="evenodd" d="M4.06189 11H6.93818C6.7692 9.64346 6.26081 8.39307 5.50006 7.33519C4.73965 8.39288 4.23102 9.64372 4.06189 11ZM6.88479 5.84875C8.01684 7.29805 8.75864 9.06867 8.95057 11H11V4.06189C9.44581 4.2557 8.03007 4.89532 6.88479 5.84875ZM13 4.06189V11H15.0494C15.2414 9.06867 15.9832 7.29805 17.1152 5.84875C15.9699 4.89532 14.5542 4.2557 13 4.06189ZM18.4999 7.33519C17.7392 8.39307 17.2308 9.64346 17.0618 11H19.9381C19.769 9.64372 19.2603 8.39287 18.4999 7.33519ZM19.9381 13H17.0618C17.2308 14.3565 17.7392 15.6069 18.4999 16.6648C19.2604 15.6071 19.769 14.3563 19.9381 13ZM17.1152 18.1513C15.9832 16.702 15.2414 14.9313 15.0494 13H13V19.9381C14.5542 19.7443 15.9699 19.1047 17.1152 18.1513ZM11 19.9381V13H8.95057C8.75864 14.9313 8.01684 16.702 6.88479 18.1513C8.03007 19.1047 9.44581 19.7443 11 19.9381ZM5.50006 16.6648C6.26081 15.6069 6.7692 14.3565 6.93818 13H4.06189C4.23102 14.3563 4.73965 15.6071 5.50006 16.6648ZM2 12C2 6.47715 6.47715 2 12 2C17.5228 2 22 6.47715 22 12C22 17.5228 17.5228 22 12 22C6.47715 22 2 17.5228 2 12Z" fill="white"/>
</svg>
