<svg width="24" height="24" viewBox="0 0 24 24" xmlns="http://www.w3.org/2000/svg">
<path d="M20 7.76396C20 7.69706 19.9716 7.63417 19.9238 7.59013L19.8691 7.55205L12.4473 3.84111C12.2008 3.71788 11.9161 3.70269 11.6602 3.79521L11.5527 3.84111L4.13086 7.55205C4.05088 7.59203 4 7.67454 4 7.76396C4.00025 7.89413 4.1061 7.99931 4.23633 7.99931H19.7637C19.8939 7.99931 19.9998 7.89413 20 7.76396ZM5.44141 17.9993C5.06486 17.9994 4.7249 18.2102 4.55469 18.5364L4.49316 18.6829L4.3877 18.9993H19.6123L19.5068 18.6829C19.3876 18.3257 19.0802 18.0701 18.7168 18.012L18.5586 17.9993H5.44141ZM16 15.9993H18V9.99931H16V15.9993ZM10 15.9993H14V9.99931H10V15.9993ZM6 15.9993H8V9.99931H6V15.9993ZM22 7.76396C21.9998 8.91891 21.1237 9.86764 20 9.98564V16.3704C20.6482 16.726 21.1593 17.3162 21.4043 18.0511L21.5098 18.3675L21.5459 18.4886C21.8807 19.7445 20.9348 20.9993 19.6123 20.9993H4.3877C3.02267 20.9993 2.05877 19.6625 2.49023 18.3675L2.5957 18.0511L2.68066 17.8265C2.94843 17.1956 3.41925 16.689 4 16.3704V9.98564C2.87625 9.86764 2.00023 8.91891 2 7.76396C2 6.917 2.47878 6.14273 3.23633 5.76396L10.6582 2.05205L10.8184 1.97783C11.6266 1.63145 12.55 1.65616 13.3418 2.05205L20.7637 5.76396L20.9023 5.83915C21.5792 6.23939 22 6.96986 22 7.76396Z"/>
</svg>
