<?xml version="1.0" encoding="UTF-8"?>
<svg width="24" height="24" viewBox="0 0 24 24" fill="none" xmlns="http://www.w3.org/2000/svg">
<path fill-rule="evenodd" clip-rule="evenodd" d="M19.5 6H17V4.5C17 3.83696 16.7366 3.20107 16.2678 2.73223C15.7989 2.26339 15.163 2 14.5 2H9.5C8.83696 2 8.20107 2.26339 7.73223 2.73223C7.26339 3.20107 7 3.83696 7 4.5V6H4.5C3.83696 6 3.20107 6.26339 2.73223 6.73223C2.26339 7.20107 2 7.83696 2 8.5V13L2.73313 13.3666C3.56626 13.7831 4.48494 14 5.41641 14H11V13H13V14H18.5836C19.5151 14 20.4337 13.7831 21.2669 13.3666L22 13V8.5C22 7.83696 21.7366 7.20107 21.2678 6.73223C20.7989 6.26339 20.163 6 19.5 6ZM22 15L21.2669 15.3666C20.4337 15.7831 19.5151 16 18.5836 16H13V17H11V16H5.41641C4.48494 16 3.56626 15.7831 2.73313 15.3666L2 15V18.5C2 19.163 2.26339 19.7989 2.73223 20.2678C3.20107 20.7366 3.83696 21 4.5 21H19.5C20.163 21 20.7989 20.7366 21.2678 20.2678C21.7366 19.7989 22 19.163 22 18.5V15ZM9.14645 4.14645C9.05268 4.24021 9 4.36739 9 4.5V6H15V4.5C15 4.36739 14.9473 4.24021 14.8536 4.14645C14.7598 4.05268 14.6326 4 14.5 4H9.5C9.36739 4 9.24021 4.05268 9.14645 4.14645Z"/>
</svg>
