<?xml version="1.0" encoding="UTF-8"?>
<svg xmlns="http://www.w3.org/2000/svg" width="24" height="24" viewBox="0 0 24 24">
    <path d="M12.25 2C6.59 2 2 6.59 2 12.25C2 17.91 6.59 22.5 12.25 22.5C17.91 22.5 22.5 17.91 22.5 12.25C22.5 6.59 17.91 2 12.25 2ZM9.13 4.61C9.03 4.82 8.93 5.05 8.84 5.27C8.22 6.87 7.83 8.96 7.76 11.25H4.06C4.42 8.24 6.41 5.72 9.13 4.61ZM4.06 13.25H7.78C7.89 15.34 8.27 17.25 8.84 18.73C9.02 19.19 9.23 19.62 9.46 20.02C6.58 18.98 4.44 16.39 4.06 13.25ZM13.79 18C13.5 18.75 13.18 19.28 12.88 19.62C12.57 19.95 12.36 20 12.25 20C12.14 20 11.93 19.95 11.62 19.62C11.32 19.28 11 18.75 10.71 18C10.23 16.78 9.89 15.13 9.79 13.25H14.71C14.61 15.13 14.27 16.78 13.79 18ZM9.76 11.25C9.83 9.16 10.19 7.33 10.71 6C11 5.25 11.32 4.72 11.62 4.38C11.93 4.05 12.14 4 12.25 4C12.36 4 12.57 4.05 12.88 4.38C13.18 4.72 13.5 5.25 13.79 6C14.31 7.33 14.67 9.16 14.74 11.25H9.76ZM15.04 20.02C15.27 19.62 15.48 19.19 15.66 18.73C16.23 17.25 16.61 15.34 16.72 13.25H20.44C20.06 16.39 17.92 18.98 15.04 20.02ZM16.74 11.25C16.67 8.96 16.28 6.87 15.66 5.27C15.57 5.05 15.47 4.82 15.37 4.61C18.09 5.72 20.08 8.24 20.44 11.25H16.74Z" />
</svg>
