<svg width="24" height="24" viewBox="0 0 24 24" xmlns="http://www.w3.org/2000/svg">
<g clip-path="url(#clip0_3708_15676)">
<path d="M18.0001 0.729248C17.1554 0.729248 16.3297 0.979728 15.6273 1.44901C14.925 1.9183 14.3776 2.58531 14.0543 3.3657C13.7311 4.1461 13.6465 5.00482 13.8113 5.83328C13.9761 6.66174 14.3829 7.42273 14.9801 8.02002C15.5774 8.6173 16.3384 9.02406 17.1669 9.18885C17.9953 9.35364 18.8541 9.26907 19.6345 8.94582C20.4149 8.62257 21.0819 8.07516 21.5512 7.37283C22.0204 6.67049 22.2709 5.84477 22.2709 5.00008C22.2708 3.86742 21.8208 2.78118 21.0199 1.98027C20.219 1.17936 19.1327 0.729359 18.0001 0.729248ZM17.6626 6.84592L15.9543 5.48341L16.4751 4.82925L17.5043 5.65425L19.1584 3.37508L19.8334 3.86675L17.6626 6.84592Z"/>
</g>
<path d="M20.2 11.9C20.2 11.7 20.2 11.4 20.2 11.2V11H22.2V11.2C22.2 14.1 20.9 16.8 18.4 18.3L10.2 23V19H10C5.6 19 2 15.4 2 11C2 6.6 5.6 3 10 3H11.2V5H10C6.7 5 4 7.7 4 11C4 14.3 6.7 17 10 17H12.2V19.5L17.4 16.5C19.1 15.5 20 13.8 20.2 11.9Z"/>
<defs>
<clipPath id="clip0_3708_15676">
<rect width="10" height="10" transform="translate(13)"/>
</clipPath>
</defs>
</svg>
