<svg width="24" height="24" xmlns="http://www.w3.org/2000/svg"><path d="M10.499 2.043 C 9.382 2.230,8.454 3.054,8.115 4.160 C 8.045 4.390,8.023 4.559,8.022 4.883 C 8.020 5.285,8.026 5.315,8.141 5.503 C 8.537 6.147,9.457 6.156,9.849 5.520 C 9.927 5.392,9.971 5.249,9.999 5.031 C 10.048 4.645,10.111 4.491,10.301 4.301 C 10.491 4.112,10.645 4.048,11.028 3.999 C 11.392 3.953,11.631 3.827,11.802 3.591 C 12.207 3.032,11.947 2.253,11.290 2.055 C 11.090 1.995,10.811 1.991,10.499 2.043 M13.695 2.057 C 13.466 2.129,13.256 2.299,13.128 2.516 C 13.037 2.672,13.020 2.746,13.020 3.000 C 13.020 3.256,13.036 3.328,13.131 3.489 C 13.256 3.702,13.449 3.864,13.670 3.943 C 13.885 4.020,16.115 4.020,16.330 3.943 C 16.551 3.864,16.744 3.702,16.869 3.489 C 16.964 3.328,16.980 3.256,16.980 3.000 C 16.980 2.746,16.963 2.672,16.872 2.516 C 16.740 2.293,16.533 2.128,16.290 2.055 C 16.039 1.979,13.937 1.981,13.695 2.057 M18.695 2.054 C 18.048 2.267,17.799 3.040,18.198 3.591 C 18.369 3.827,18.608 3.953,18.972 3.999 C 19.355 4.048,19.509 4.112,19.699 4.301 C 19.889 4.491,19.952 4.645,20.001 5.031 C 20.049 5.410,20.184 5.647,20.452 5.828 C 20.923 6.144,21.554 5.998,21.859 5.503 C 21.974 5.315,21.980 5.285,21.978 4.883 C 21.977 4.559,21.955 4.390,21.885 4.160 C 21.586 3.184,20.809 2.404,19.863 2.130 C 19.463 2.015,18.922 1.979,18.695 2.054 M8.695 7.057 C 8.351 7.165,8.073 7.481,8.017 7.827 L 7.991 7.994 6.325 8.010 C 4.741 8.025,4.645 8.030,4.361 8.116 C 3.280 8.440,2.425 9.301,2.112 10.382 L 2.020 10.700 2.020 15.000 L 2.020 19.300 2.112 19.618 C 2.428 20.711,3.289 21.572,4.382 21.888 L 4.700 21.980 9.000 21.980 L 13.300 21.980 13.618 21.888 C 14.701 21.574,15.558 20.724,15.885 19.639 C 15.971 19.354,15.976 19.263,15.990 17.674 L 16.005 16.008 16.182 15.982 C 16.423 15.946,16.713 15.741,16.859 15.503 C 16.966 15.329,16.980 15.271,16.980 15.003 C 16.980 14.745,16.964 14.672,16.871 14.514 C 16.730 14.275,16.485 14.096,16.217 14.036 L 16.005 13.988 15.990 12.324 C 15.976 10.737,15.971 10.646,15.885 10.361 C 15.562 9.288,14.709 8.437,13.633 8.114 C 13.356 8.031,13.249 8.025,11.675 8.010 L 10.009 7.994 9.983 7.827 C 9.926 7.473,9.647 7.163,9.290 7.055 C 9.068 6.988,8.913 6.989,8.695 7.057 M20.695 7.057 C 20.466 7.129,20.256 7.299,20.128 7.516 L 20.020 7.700 20.020 9.003 L 20.020 10.306 20.141 10.503 C 20.543 11.156,21.457 11.156,21.859 10.503 L 21.980 10.306 21.980 9.003 L 21.980 7.700 21.872 7.516 C 21.628 7.101,21.150 6.915,20.695 7.057 M13.286 10.131 C 13.547 10.259,13.772 10.490,13.895 10.755 L 13.980 10.940 13.980 15.000 L 13.980 19.060 13.868 19.289 C 13.730 19.569,13.465 19.810,13.174 19.919 C 12.961 19.998,12.881 20.000,9.000 20.000 C 5.119 20.000,5.039 19.998,4.826 19.919 C 4.535 19.810,4.270 19.569,4.132 19.289 L 4.020 19.060 4.020 15.000 C 4.020 10.956,4.020 10.939,4.104 10.758 C 4.268 10.405,4.561 10.151,4.918 10.054 C 5.058 10.016,6.019 10.006,9.080 10.012 L 13.060 10.020 13.286 10.131 M20.695 12.057 C 20.298 12.181,20.062 12.491,20.002 12.966 C 19.957 13.320,19.916 13.438,19.774 13.625 C 19.613 13.835,19.377 13.955,19.034 13.998 C 18.870 14.019,18.686 14.055,18.625 14.078 C 18.439 14.149,18.242 14.323,18.128 14.516 C 18.037 14.672,18.020 14.746,18.020 15.000 C 18.020 15.257,18.036 15.327,18.133 15.492 C 18.263 15.714,18.502 15.901,18.736 15.965 C 18.960 16.026,19.519 15.982,19.863 15.877 C 20.821 15.584,21.587 14.812,21.885 13.840 C 21.955 13.611,21.977 13.440,21.978 13.120 C 21.980 12.734,21.971 12.685,21.872 12.516 C 21.628 12.101,21.150 11.915,20.695 12.057"></path></svg>