<svg width="24" height="24" viewBox="0 0 24 24" xmlns="http://www.w3.org/2000/svg">
<path d="M21 11C21 10.4477 20.5523 10 20 10H15C14.4477 10 14 10.4477 14 11V19C14 19.5523 14.4477 20 15 20H20C20.5523 20 21 19.5523 21 19V11ZM18 17C18.5523 17 19 17.4477 19 18C19 18.5523 18.5523 19 18 19H17C16.4477 19 16 18.5523 16 18C16 17.4477 16.4477 17 17 17H18ZM3 18C3 18.5523 3.44772 19 4 19H12V17H3V18ZM19 6C19 5.44771 18.5523 5 18 5H6C5.44772 5 5 5.44772 5 6V15H12V11C12 9.34315 13.3431 8 15 8H19V6ZM21 8.17383C22.1647 8.58594 23 9.69415 23 11V19C23 20.6569 21.6569 22 20 22H15C14.1126 22 13.3178 21.6124 12.7686 21H4C2.34315 21 1 19.6569 1 18V16L1.00488 15.8975C1.05621 15.3933 1.48232 15 2 15H3V6C3 4.34315 4.34315 3 6 3H18C19.6569 3 21 4.34315 21 6V8.17383Z"/>
</svg>
