<svg width="24" height="24" viewBox="0 0 24 24" xmlns="http://www.w3.org/2000/svg">
<path fill-rule="evenodd" d="M1 4.5C1 3.39543 1.89543 2.5 3 2.5H21C22.1046 2.5 23 3.39543 23 4.5V15.5C23 16.6046 22.1046 17.5 21 17.5H15V19.5H17C17.5523 19.5 18 19.9477 18 20.5C18 21.0523 17.5523 21.5 17 21.5H7C6.44771 21.5 6 21.0523 6 20.5C6 19.9477 6.44772 19.5 7 19.5H9V17.5H3C1.89543 17.5 1 16.6046 1 15.5V4.5ZM11 19.5H13V17.5H11V19.5ZM3 5.5C3 4.94772 3.44772 4.5 4 4.5H20C20.5523 4.5 21 4.94772 21 5.5V14.5C21 15.0523 20.5523 15.5 20 15.5H4C3.44772 15.5 3 15.0523 3 14.5V5.5Z"/>
</svg>