<svg width="24" height="24" xmlns="http://www.w3.org/2000/svg"><path d="M4.360 3.056 C 3.414 3.266,2.816 4.239,3.060 5.173 C 3.140 5.481,3.252 5.691,3.453 5.910 C 3.797 6.285,4.238 6.485,4.730 6.487 C 5.247 6.489,5.622 6.336,5.979 5.979 C 6.336 5.622,6.489 5.247,6.487 4.730 C 6.483 3.897,5.869 3.172,5.053 3.039 C 4.762 2.991,4.637 2.994,4.360 3.056 M11.669 3.042 C 11.365 3.093,11.002 3.287,10.764 3.524 C 9.914 4.374,10.168 5.805,11.260 6.324 C 11.718 6.542,12.282 6.542,12.740 6.324 C 13.832 5.805,14.086 4.374,13.236 3.524 C 12.987 3.275,12.638 3.095,12.295 3.039 C 12.030 2.995,11.941 2.996,11.669 3.042 M18.911 3.041 C 18.330 3.139,17.780 3.631,17.583 4.229 C 17.503 4.473,17.491 4.945,17.560 5.201 C 17.639 5.495,17.789 5.747,18.021 5.979 C 18.378 6.336,18.753 6.489,19.270 6.487 C 20.401 6.482,21.222 5.409,20.937 4.307 C 20.772 3.673,20.224 3.162,19.581 3.044 C 19.318 2.995,19.188 2.995,18.911 3.041 M4.460 10.286 C 3.558 10.411,2.873 11.355,3.028 12.261 C 3.245 13.525,4.651 14.155,5.700 13.458 C 6.621 12.847,6.760 11.555,5.988 10.783 C 5.576 10.371,5.060 10.203,4.460 10.286 M11.701 10.285 C 11.367 10.333,11.062 10.498,10.769 10.787 C 10.359 11.192,10.184 11.720,10.278 12.270 C 10.347 12.671,10.482 12.930,10.776 13.224 C 11.070 13.518,11.329 13.653,11.730 13.722 C 12.056 13.778,12.429 13.726,12.753 13.579 C 13.032 13.452,13.452 13.032,13.579 12.753 C 13.874 12.102,13.768 11.365,13.304 10.851 C 12.887 10.391,12.329 10.193,11.701 10.285 M18.994 10.281 C 18.271 10.370,17.628 11.014,17.527 11.750 C 17.337 13.139,18.745 14.167,20.015 13.567 C 20.677 13.255,21.095 12.457,20.972 11.739 C 20.806 10.774,19.974 10.160,18.994 10.281 M4.156 17.614 C 3.836 17.746,3.677 17.852,3.469 18.074 C 3.059 18.512,2.911 19.104,3.063 19.693 C 3.302 20.612,4.259 21.178,5.173 20.940 C 5.481 20.860,5.691 20.748,5.910 20.547 C 6.285 20.203,6.485 19.762,6.487 19.270 C 6.489 18.763,6.337 18.381,6.000 18.044 C 5.622 17.666,5.266 17.521,4.720 17.521 C 4.457 17.522,4.329 17.543,4.156 17.614 M11.500 17.574 C 10.457 17.919,9.970 19.033,10.433 20.015 C 10.745 20.677,11.543 21.095,12.261 20.972 C 13.525 20.755,14.155 19.349,13.458 18.300 C 13.268 18.013,13.043 17.820,12.720 17.666 C 12.491 17.557,12.412 17.541,12.060 17.532 C 11.808 17.525,11.601 17.541,11.500 17.574 M18.691 17.595 C 18.148 17.785,17.707 18.254,17.560 18.799 C 17.491 19.055,17.503 19.527,17.583 19.771 C 17.877 20.664,18.793 21.170,19.693 20.937 C 20.615 20.698,21.178 19.741,20.939 18.821 C 20.806 18.311,20.461 17.901,19.970 17.668 C 19.729 17.554,19.657 17.539,19.300 17.531 C 18.998 17.524,18.849 17.540,18.691 17.595"></path></svg>