<svg width="24" height="24" xmlns="http://www.w3.org/2000/svg"><path d="M4.76 4.041c-.748.069-1.288.305-1.801.787a2.794 2.794 0 0 0-.884 1.592c-.082.415-.082 10.745 0 11.16.163.822.608 1.478 1.32 1.946.346.227.761.368 1.265.43.504.061 14.176.061 14.68 0 .198-.024.497-.087.665-.14.726-.229 1.456-.91 1.746-1.628.235-.582.224-.309.239-5.928.015-5.485.01-5.684-.173-6.263-.231-.729-.93-1.47-1.662-1.759-.564-.223-.167-.212-7.915-.221-3.927-.004-7.293.007-7.48.024M18.893 6.03c.023.04-6.244 5.165-6.462 5.283-.143.078-.217.091-.451.079a1.052 1.052 0 0 1-.429-.093c-.2-.106-6.474-5.243-6.442-5.274.035-.036 13.763-.031 13.784.005M7.1 10.287c1.628 1.33 3.05 2.483 3.16 2.561.994.708 2.343.75 3.343.103.119-.077 1.603-1.275 3.297-2.662l3.08-2.522.011 4.507c.006 2.584-.005 4.639-.026 4.818-.062.521-.316.795-.81.871-.162.025-2.837.035-7.336.028l-7.081-.011-.197-.102c-.308-.158-.455-.393-.502-.805C4.017 16.88 4 14.849 4 12.244c0-4.278.003-4.493.07-4.436l3.03 2.479"/></svg>