<svg width="24" height="24" xmlns="http://www.w3.org/2000/svg"><path d="M11.673 1.061 C 11.428 1.139,11.149 1.416,11.064 1.666 C 11.008 1.831,11.000 2.178,11.000 4.500 C 11.000 7.491,10.990 7.383,11.304 7.698 C 11.824 8.217,12.696 8.022,12.943 7.330 C 13.011 7.139,13.025 1.952,12.958 1.711 C 12.816 1.198,12.207 0.891,11.673 1.061 M6.647 3.581 C 6.297 3.733,5.342 4.499,4.798 5.065 C 2.546 7.406,1.566 10.718,2.185 13.897 C 2.939 17.772,5.888 20.834,9.740 21.740 C 11.351 22.120,13.134 22.077,14.719 21.620 C 16.415 21.132,17.811 20.310,19.062 19.061 C 20.161 17.965,20.956 16.700,21.451 15.260 C 21.803 14.235,21.953 13.396,21.987 12.260 C 22.058 9.866,21.305 7.638,19.767 5.693 C 19.219 5.000,18.179 4.071,17.482 3.651 C 16.905 3.303,16.149 3.640,16.006 4.309 C 15.956 4.542,16.010 4.834,16.141 5.042 C 16.191 5.121,16.436 5.337,16.686 5.521 C 17.781 6.332,18.588 7.293,19.182 8.493 C 20.549 11.258,20.167 14.619,18.211 17.040 C 17.925 17.394,17.239 18.066,16.900 18.326 C 15.484 19.407,13.749 20.000,12.000 20.000 C 10.181 20.000,8.398 19.367,6.975 18.216 C 3.840 15.679,3.087 11.202,5.218 7.766 C 5.708 6.976,6.495 6.123,7.216 5.599 C 7.734 5.222,7.825 5.137,7.925 4.930 C 8.049 4.674,8.048 4.318,7.924 4.077 C 7.796 3.829,7.690 3.724,7.460 3.615 C 7.226 3.505,6.858 3.489,6.647 3.581"></path></svg>