<svg width="24" height="24" xmlns="http://www.w3.org/2000/svg"><path d="M4.680 3.027 C 4.211 3.109,3.734 3.393,3.440 3.765 C 3.021 4.294,3.002 4.416,3.001 6.463 C 3.000 8.360,3.005 8.399,3.303 8.697 C 3.486 8.880,3.763 9.000,4.000 9.000 C 4.237 9.000,4.514 8.880,4.697 8.697 C 4.993 8.401,5.000 8.350,5.000 6.553 L 5.000 5.000 6.553 5.000 C 8.350 5.000,8.401 4.993,8.697 4.697 C 8.880 4.514,9.000 4.237,9.000 4.000 C 9.000 3.776,8.883 3.499,8.718 3.332 C 8.398 3.009,8.478 3.021,6.520 3.015 C 5.563 3.012,4.735 3.017,4.680 3.027 M15.720 3.046 C 15.568 3.090,15.353 3.240,15.210 3.400 C 15.113 3.509,15.000 3.831,15.000 4.000 C 15.000 4.237,15.120 4.514,15.303 4.697 C 15.599 4.993,15.650 5.000,17.447 5.000 L 19.000 5.000 19.000 6.553 C 19.000 8.350,19.007 8.401,19.303 8.697 C 19.486 8.880,19.763 9.000,20.000 9.000 C 20.237 9.000,20.514 8.880,20.697 8.697 C 20.995 8.399,21.000 8.360,20.999 6.463 C 20.999 4.726,20.977 4.467,20.806 4.131 C 20.583 3.694,20.122 3.281,19.671 3.116 C 19.424 3.025,19.389 3.023,17.640 3.014 C 16.516 3.008,15.808 3.020,15.720 3.046 M12.120 7.843 C 12.021 7.888,11.880 7.982,11.807 8.052 C 11.537 8.311,11.542 8.278,11.520 9.820 C 11.501 11.138,11.495 11.231,11.415 11.400 C 11.289 11.669,11.073 11.860,10.774 11.965 C 10.175 12.177,9.896 12.662,10.057 13.216 C 10.228 13.804,10.795 14.057,11.451 13.837 C 12.412 13.514,13.149 12.722,13.400 11.741 C 13.473 11.455,13.480 11.298,13.480 9.972 C 13.480 8.369,13.477 8.348,13.228 8.085 C 12.939 7.781,12.480 7.680,12.120 7.843 M7.720 8.045 C 7.427 8.133,7.149 8.408,7.060 8.697 C 6.976 8.972,6.977 10.026,7.061 10.310 C 7.173 10.688,7.598 11.000,8.000 11.000 C 8.402 11.000,8.827 10.688,8.939 10.310 C 9.022 10.030,9.024 8.974,8.941 8.696 C 8.875 8.473,8.639 8.207,8.414 8.100 C 8.238 8.016,7.903 7.990,7.720 8.045 M15.720 8.045 C 15.427 8.133,15.149 8.408,15.060 8.697 C 14.976 8.972,14.977 10.026,15.061 10.310 C 15.173 10.688,15.598 11.000,16.000 11.000 C 16.402 11.000,16.827 10.688,16.939 10.310 C 17.022 10.030,17.024 8.974,16.941 8.696 C 16.875 8.473,16.639 8.207,16.414 8.100 C 16.238 8.016,15.903 7.990,15.720 8.045 M8.581 14.802 C 7.973 15.106,7.821 15.869,8.270 16.366 C 8.446 16.560,9.248 16.963,9.840 17.154 C 10.633 17.410,10.964 17.457,12.000 17.457 C 13.036 17.457,13.367 17.410,14.160 17.154 C 14.752 16.963,15.554 16.560,15.730 16.366 C 16.098 15.958,16.067 15.323,15.661 14.966 C 15.460 14.790,15.270 14.720,14.991 14.720 C 14.791 14.720,14.700 14.747,14.426 14.885 C 13.559 15.323,12.896 15.488,12.000 15.488 C 11.104 15.488,10.441 15.323,9.574 14.885 C 9.291 14.742,9.213 14.720,8.994 14.722 C 8.824 14.723,8.688 14.749,8.581 14.802 M3.720 15.045 C 3.427 15.133,3.149 15.408,3.060 15.697 C 2.974 15.979,2.973 19.046,3.059 19.451 C 3.137 19.822,3.291 20.092,3.599 20.401 C 3.908 20.709,4.178 20.863,4.549 20.941 C 4.956 21.027,8.019 21.026,8.310 20.939 C 8.688 20.827,9.000 20.402,9.000 20.000 C 9.000 19.776,8.883 19.499,8.718 19.332 C 8.401 19.012,8.463 19.021,6.630 19.008 L 5.000 18.997 5.000 17.446 C 5.000 15.675,4.991 15.608,4.718 15.332 C 4.627 15.241,4.491 15.136,4.414 15.100 C 4.238 15.016,3.903 14.990,3.720 15.045 M19.720 15.045 C 19.568 15.090,19.352 15.241,19.210 15.400 C 19.017 15.617,19.000 15.778,19.000 17.446 L 19.000 18.997 17.370 19.008 C 15.537 19.021,15.599 19.012,15.282 19.332 C 15.117 19.499,15.000 19.776,15.000 20.000 C 15.000 20.237,15.120 20.514,15.303 20.697 C 15.601 20.994,15.642 21.000,17.520 21.000 C 18.515 21.000,19.237 20.983,19.383 20.957 C 20.151 20.816,20.816 20.151,20.957 19.383 C 20.983 19.237,21.000 18.515,21.000 17.520 C 21.000 15.667,20.993 15.610,20.718 15.332 C 20.627 15.241,20.491 15.136,20.414 15.100 C 20.238 15.016,19.903 14.990,19.720 15.045"></path></svg>