<svg width="24" height="24" viewBox="0 0 24 24" fill="none" xmlns="http://www.w3.org/2000/svg">
<path d="M8 13C8 12.4477 8.44772 12 9 12H12C12.5523 12 13 12.4477 13 13C13 13.5523 12.5523 14 12 14H9C8.44772 14 8 13.5523 8 13Z"/>
<path d="M8 17C8 16.4477 8.44772 16 9 16H15.5C16.0523 16 16.5 16.4477 16.5 17C16.5 17.5523 16.0523 18 15.5 18H9C8.44772 18 8 17.5523 8 17Z"/>
<path fill-rule="evenodd" clip-rule="evenodd" d="M20 9.62132C20 8.9811 19.7544 8.36621 19.3155 7.90256C19.3041 7.89029 19.2923 7.87814 19.2803 7.86612L14.1339 2.71967C14.1219 2.70765 14.1097 2.69595 14.0974 2.68456C13.6338 2.24557 13.0189 2 12.3787 2H6.5C5.11929 2 4 3.11929 4 4.5V19.5C4 20.8807 5.11929 22 6.5 22H17.5C18.8807 22 20 20.8807 20 19.5V9.62132ZM6.5 4C6.22386 4 6 4.22386 6 4.5V19.5C6 19.7761 6.22386 20 6.5 20H17.5C17.7761 20 18 19.7761 18 19.5V10H14.5C13.1193 10 12 8.88071 12 7.5V4H6.5ZM14 5.41421L16.5858 8H14.5C14.2239 8 14 7.77614 14 7.5V5.41421Z"/>
</svg>
