<?xml version="1.0" encoding="UTF-8"?>
<svg xmlns="http://www.w3.org/2000/svg" width="24" height="24" viewBox="0 0 24 24">
    <path d="M18.5 2h-13C4.12 2 3 3.12 3 4.5v15C3 20.88 4.12 22 5.5 22h13c1.38 0 2.5-1.12 2.5-2.5v-15C21 3.12 19.88 2 18.5 2ZM7 20H5.5c-.28 0-.5-.22-.5-.5v-2h2V20Zm0-4.5H5V13h2v2.5ZM7 11H5V8.5h2V11Zm0-4.5H5v-2c0-.28.22-.5.5-.5H7v2.5ZM15 20H9v-7h6v7Zm0-9H9V4h6v7Zm4 8.5c0 .28-.22.5-.5.5H17v-2.5h2v2Zm0-4h-2V13h2v2.5Zm0-4.5h-2V8.5h2V11Zm0-4.5h-2V4h1.5c.28 0 .5.22.5.5v2Z"/>
</svg>
