<svg width="24" height="24" viewBox="0 0 24 24" fill="none" xmlns="http://www.w3.org/2000/svg">
<path d="M15.6354 10.9862C15.5162 10.1381 15.4348 9.56159 15.3358 9.12105C15.2635 8.79938 15.1912 8.59914 15.1174 8.45847L15.0429 8.33483C14.8309 8.03215 14.5397 7.79487 14.2028 7.64819L14.0557 7.59096C13.8897 7.53381 13.6583 7.50054 13.2192 7.52608C12.7684 7.55231 12.1918 7.633 11.3437 7.75219L6.98618 8.3646C6.13812 8.48379 5.56159 8.56517 5.12105 8.6642C4.69189 8.76069 4.47862 8.85646 4.33484 8.95714C3.98893 9.19937 3.72846 9.54502 3.59096 9.9443C3.53381 10.1103 3.50054 10.3417 3.52608 10.7808C3.55231 11.2316 3.633 11.8082 3.75219 12.6563L4.3646 17.0138C4.48379 17.8619 4.56517 18.4384 4.6642 18.879C4.76069 19.3081 4.85646 19.5214 4.95714 19.6652L5.0527 19.7908C5.28657 20.0742 5.59491 20.2887 5.9443 20.409L6.0837 20.4467C6.23926 20.4788 6.45166 20.4931 6.7808 20.4739C7.23158 20.4477 7.8082 20.367 8.65626 20.2478L13.0138 19.6354C13.8619 19.5162 14.4384 19.4348 14.879 19.3358C15.3081 19.2393 15.5214 19.1435 15.6652 19.0429L15.7908 18.9473C16.0743 18.7134 16.2887 18.4051 16.409 18.0557L16.4467 17.9163C16.4788 17.7607 16.4931 17.5483 16.4739 17.2192C16.4477 16.7684 16.367 16.1918 16.2478 15.3437L15.6354 10.9862ZM18.2284 15.0654C18.343 15.8809 18.4383 16.552 18.4704 17.1033C18.499 17.596 18.4832 18.06 18.3599 18.5133L18.3003 18.707C18.0597 19.4058 17.6307 20.0225 17.0638 20.4902L16.8126 20.6814C16.3664 20.9938 15.868 21.1632 15.3178 21.2869C14.7791 21.408 14.1076 21.5013 13.2922 21.6159L8.9346 22.2284C8.11913 22.343 7.44798 22.4383 6.8967 22.4704C6.40404 22.499 5.94004 22.4832 5.48674 22.3599L5.29297 22.3003C4.59421 22.0597 3.97752 21.6307 3.50978 21.0638L3.31865 20.8126C3.00624 20.3664 2.83684 19.868 2.71313 19.3178C2.592 18.7791 2.49867 18.1076 2.38407 17.2922L1.77165 12.9346C1.65704 12.1191 1.56169 11.448 1.52962 10.8967C1.49688 10.3337 1.52235 9.80796 1.69968 9.29297C1.97469 8.49442 2.49562 7.80312 3.18743 7.31865C3.6336 7.00624 4.13197 6.83684 4.68216 6.71313C5.22092 6.592 5.89236 6.49867 6.70783 6.38407L11.0654 5.77165C11.8809 5.65704 12.552 5.56169 13.1033 5.52962C13.6663 5.49688 14.192 5.52235 14.707 5.69968L15.0012 5.81415C15.6751 6.1075 16.2574 6.58207 16.6814 7.18743L16.792 7.35728C17.0355 7.75904 17.1786 8.20069 17.2869 8.68216C17.408 9.22092 17.5013 9.89236 17.6159 10.7078L18.2284 15.0654Z"/>
<path d="M13.6131 10.9676C13.7284 11.788 13.1569 12.5465 12.3365 12.6618C11.5161 12.7771 10.7576 12.2055 10.6423 11.3852C10.527 10.5648 11.0986 9.80629 11.919 9.691C12.7393 9.5757 13.4978 10.1473 13.6131 10.9676Z"/>
<path d="M2.78978 12.9937C7.71197 12.3019 12.263 15.7313 12.9548 20.6535L10.9742 20.9319C10.4362 17.1035 6.8965 14.4362 3.06813 14.9742L2.78978 12.9937Z"/>
<path d="M10.8962 1.52986C11.4475 1.56192 12.1189 1.65745 12.9343 1.77205L17.2917 2.38435C18.1072 2.49896 18.7793 2.59232 19.3181 2.71345C19.8681 2.83714 20.3662 3.00662 20.8122 3.31892L21.0642 3.50935C21.631 3.97701 22.0599 4.59394 22.3005 5.29255L22.3601 5.48689C22.4834 5.94015 22.4991 6.40444 22.4704 6.89705C22.4384 7.44827 22.3428 8.1198 22.2283 8.93513L21.6159 13.2926C21.5014 14.1079 21.408 14.7793 21.2868 15.3179C21.1786 15.7994 21.0352 16.2414 20.7917 16.6431L20.6814 16.8131C20.6309 16.8852 20.5771 16.9547 20.5222 17.023L19.7966 11.8609L20.2478 8.65584C20.3669 7.80803 20.4481 7.23153 20.4743 6.78084C20.4935 6.45171 20.4792 6.23912 20.447 6.08357L20.4089 5.94392C20.2886 5.59471 20.0741 5.2861 19.7908 5.05232L19.6648 4.95759C19.521 4.85693 19.3077 4.7611 18.8786 4.66462C18.4381 4.56561 17.8613 4.48399 17.0134 4.36482L12.656 3.75251C11.8082 3.63336 11.2317 3.55219 10.781 3.52595C10.3419 3.50041 10.11 3.53423 9.94407 3.59138C9.6835 3.68117 9.44589 3.82329 9.24486 4.0074L6.79759 4.35115C6.91409 3.93055 7.07066 3.54186 7.31907 3.18709C7.80347 2.49557 8.49444 1.97475 9.29271 1.69978C9.80756 1.5225 10.3334 1.49716 10.8962 1.52986Z"/>
</svg>
