<svg width="22" height="22" viewBox="0 0 22 22" fill="none" xmlns="http://www.w3.org/2000/svg">
<path d="M1.83301 5.90495C1.83301 4.63995 2.85967 3.61328 4.12467 3.61328H10.083V5.44661H4.12467C3.86801 5.44661 3.66634 5.64828 3.66634 5.90495V17.8216C3.66634 18.0783 3.86801 18.2799 4.12467 18.2799H17.8747C18.1222 18.2799 18.333 18.0783 18.333 17.8216V11.8633H20.1663V17.8216C20.1663 19.0866 19.1397 20.1133 17.8747 20.1133H4.12467C2.85967 20.1133 1.83301 19.0866 1.83301 17.8216V5.90495Z"/>
<path d="M16.1386 2.46681C16.2863 2.31884 16.4616 2.20144 16.6547 2.12134C16.8478 2.04123 17.0548 2 17.2638 2C17.4728 2 17.6798 2.04123 17.8729 2.12134C18.0659 2.20144 18.2413 2.31884 18.3889 2.46681L20.5375 4.61379C20.8338 4.91277 21 5.31662 21 5.73749C21 6.15837 20.8338 6.56222 20.5375 6.86119L13.3925 14H9V9.60562L16.1386 2.46681ZM17.4863 3.36552C17.4572 3.33608 17.4225 3.3127 17.3844 3.29675C17.3462 3.2808 17.3052 3.27258 17.2638 3.27258C17.2224 3.27258 17.1814 3.2808 17.1432 3.29675C17.105 3.3127 17.0704 3.33608 17.0413 3.36552L10.2714 10.1319V12.7288H12.8713L19.6349 5.96249C19.665 5.93328 19.689 5.89831 19.7053 5.85966C19.7217 5.82101 19.7301 5.77946 19.7301 5.73749C19.7301 5.69552 19.7217 5.65398 19.7053 5.61533C19.689 5.57668 19.665 5.54171 19.6349 5.5125L17.4863 3.36552Z"/>
</svg>
