<svg width="24" height="24" viewBox="0 0 24 24" fill="none" xmlns="http://www.w3.org/2000/svg">
<path d="M3 17.7216V8.12201C3 7.57845 2.99893 7.11017 3.03028 6.7265C3.06258 6.33116 3.13436 5.93788 3.32715 5.55951L3.44239 5.35345C3.73056 4.88342 4.14379 4.50072 4.6377 4.24896L4.78028 4.18158C5.1144 4.0383 5.45879 3.98036 5.80469 3.95208C6.18836 3.92074 6.65665 3.92181 7.2002 3.92181H11C11.5523 3.92181 12 4.36953 12 4.92181C11.9999 5.47398 11.5522 5.92181 11 5.92181H7.2002C6.62365 5.92181 6.25112 5.9221 5.96778 5.94525C5.76422 5.96188 5.65667 5.98745 5.59473 6.0097L5.5459 6.03021C5.40492 6.10205 5.28367 6.20621 5.19141 6.33294L5.10938 6.46771C5.08419 6.51715 5.04661 6.61792 5.02442 6.88958C5.00128 7.1729 5 7.54555 5 8.12201V17.7216C5 18.2981 5.00127 18.6707 5.02442 18.954C5.04662 19.2254 5.0842 19.3265 5.10938 19.3759L5.19141 19.5097C5.28367 19.6365 5.40486 19.7405 5.5459 19.8124L5.59473 19.8329C5.65664 19.8552 5.76408 19.8807 5.96778 19.8974C6.25112 19.9205 6.62365 19.9218 7.2002 19.9218H16.7998C17.3764 19.9218 17.7489 19.9205 18.0322 19.8974C18.3038 19.8752 18.4047 19.8376 18.4541 19.8124L18.5879 19.7304C18.7148 19.6382 18.8187 19.5169 18.8906 19.3759L18.9121 19.3271C18.9344 19.2652 18.9589 19.1575 18.9756 18.954C18.9987 18.6707 19 18.2981 19 17.7216V13.9218C19 13.3695 19.4477 12.9218 20 12.9218C20.5523 12.9218 21 13.3695 21 13.9218V17.7216C21 18.2649 21.001 18.7326 20.9697 19.1161C20.9415 19.4619 20.8833 19.8066 20.7402 20.1406L20.6729 20.2831C20.4212 20.7771 20.0383 21.1902 19.5684 21.4785L19.3623 21.5947C18.984 21.7874 18.5906 21.8582 18.1953 21.8906C17.8116 21.9219 17.3434 21.9218 16.7998 21.9218H7.2002C6.65665 21.9218 6.18836 21.9219 5.80469 21.8906C5.45874 21.8623 5.11445 21.8044 4.78028 21.6611L4.6377 21.5947C4.14383 21.343 3.73059 20.9601 3.44239 20.4902L3.32715 20.2831C3.13445 19.9048 3.06257 19.5114 3.03028 19.1161C2.99897 18.7326 3 18.2649 3 17.7216ZM16.7402 3.7724C17.9179 2.7081 19.736 2.74379 20.8711 3.87884L21.043 4.04974L21.1494 4.16204C22.179 5.30164 22.1789 7.04093 21.1494 8.1806L21.043 8.2929L13 16.3359C12.625 16.7109 12.1163 16.9218 11.5859 16.9218H9C8.44782 16.9218 8.00017 16.474 8 15.9218V13.3359C8 12.8055 8.21092 12.2969 8.58594 11.9218L16.6289 3.87884L16.7402 3.7724ZM10 14.9218H11.5859L19.6289 6.87884L19.6973 6.80267C19.9964 6.43599 19.9965 5.90658 19.6973 5.53997L19.6289 5.46478L19.457 5.2929C19.0909 4.92679 18.5119 4.90419 18.1191 5.22454L18.043 5.2929L10 13.3359V14.9218Z"/>
</svg>
