<svg width="16" height="16" viewBox="0 0 16 16" fill="none" xmlns="http://www.w3.org/2000/svg">
<path fill-rule="evenodd" clip-rule="evenodd" d="M5.79754 4.74196C4.96595 5.35413 4.46664 6.18125 4.46664 7.19879C4.46664 8.13805 5.17952 8.7889 6.19924 9.06084C6.69645 9.19344 7.20534 9.21198 7.61536 9.13391C7.88239 9.08306 8.06593 9.00085 8.18461 8.91653C8.08104 8.86772 7.94114 8.81039 7.75601 8.73759C7.74117 8.73175 7.72585 8.72575 7.7101 8.71958C7.44209 8.61463 7.04925 8.46078 6.77641 8.23635C6.61811 8.10613 6.43192 7.89936 6.36712 7.59782C6.29948 7.28306 6.39101 6.99455 6.534 6.7638C6.88784 6.19298 7.52659 5.90654 8.1352 5.79066C8.76184 5.67136 9.47407 5.70652 10.1443 5.88527C11.4594 6.23604 12.8666 7.2385 12.8666 9.03571C12.8666 10.4927 12.1472 11.6458 11.0923 12.4254C10.0509 13.195 8.6781 13.61 7.28062 13.6612C4.50027 13.763 1.34872 12.4097 0.360718 9.07157L1.63923 8.69317C2.40123 11.2677 4.84967 12.416 7.23182 12.3288C8.4156 12.2854 9.51468 11.9333 10.2999 11.3531C11.0715 10.7829 11.5333 10.0036 11.5333 9.03571C11.5333 8.09641 10.8204 7.44554 9.80069 7.17357C9.30348 7.04096 8.79459 7.02241 8.38457 7.10047C8.11755 7.15131 7.93403 7.23351 7.81535 7.31781C7.91892 7.36662 8.05882 7.42395 8.24394 7.49674C8.25878 7.50258 8.2741 7.50858 8.28985 7.51474C8.55786 7.6197 8.9507 7.77355 9.22353 7.99798C9.38183 8.1282 9.56803 8.33497 9.63282 8.63651C9.70046 8.95127 9.60894 9.23978 9.46595 9.47053C9.11212 10.0414 8.47338 10.3278 7.86477 10.4437C7.23813 10.563 6.52589 10.5279 5.85567 10.3491C4.54051 9.99842 3.13331 8.99598 3.13331 7.19879C3.13331 5.67886 3.90275 4.48115 5.00709 3.66819C6.09908 2.86433 7.53277 2.41944 8.97162 2.34466C11.8111 2.19708 15.0476 3.51832 15.6564 6.94639L14.3436 7.17952C13.9023 4.69466 11.5388 3.54636 9.04083 3.6762C7.81093 3.74012 6.64149 4.12068 5.79754 4.74196Z"/>
</svg>
