<svg width="20" height="20" viewBox="0 0 20 20" fill="none" xmlns="http://www.w3.org/2000/svg">
<path fill-rule="evenodd" clip-rule="evenodd" d="M10 2C5.58172 2 2 5.58172 2 10C2 14.4183 5.58172 18 10 18C14.4183 18 18 14.4183 18 10C18 5.58172 14.4183 2 10 2ZM0 10C0 4.47715 4.47715 0 10 0C15.5228 0 20 4.47715 20 10C20 15.5228 15.5228 20 10 20C4.47715 20 0 15.5228 0 10ZM10 5C10.5523 5 11 5.44772 11 6V9.58579L13.2071 11.7929C13.5976 12.1834 13.5976 12.8166 13.2071 13.2071C12.8166 13.5976 12.1834 13.5976 11.7929 13.2071L9.29289 10.7071C9.10536 10.5196 9 10.2652 9 10V6C9 5.44772 9.44771 5 10 5Z"/>
</svg>
