<svg width="14" height="14" viewBox="0 0 14 14" fill="none" xmlns="http://www.w3.org/2000/svg">
<path fill-rule="evenodd" clip-rule="evenodd" d="M4.47777 3.10919C3.8786 3.59011 3.49998 4.2969 3.49998 5.24996C3.49998 6.57825 4.23481 7.98323 5.30126 8.74998H6.41666V6.41663H7.58333V8.74998H8.6987C9.76515 7.98323 10.5 6.57825 10.5 5.24996C10.5 4.2969 10.1214 3.59011 9.52219 3.10919C8.90913 2.61712 8.02656 2.33329 6.99998 2.33329C5.9734 2.33329 5.09083 2.61712 4.47777 3.10919ZM8.16669 9.91664H5.83335V11.375C5.83335 11.5361 5.96394 11.6666 6.12502 11.6666H7.87502C8.0361 11.6666 8.16669 11.5361 8.16669 11.375V9.91664ZM4.66669 9.73022C3.26354 8.74653 2.33331 6.96552 2.33331 5.24996C2.33331 3.94786 2.86878 2.90464 3.74749 2.19935C4.6123 1.50521 5.77139 1.16663 6.99998 1.16663C8.22857 1.16663 9.38766 1.50521 10.2525 2.19935C11.1312 2.90465 11.6666 3.94786 11.6666 5.24996C11.6666 6.96548 10.7364 8.74646 9.33335 9.73016V11.375C9.33335 12.1804 8.68044 12.8333 7.87502 12.8333H6.12502C5.31961 12.8333 4.66669 12.1804 4.66669 11.375V9.73022Z"/>
</svg>
