<svg width="14" height="14" viewBox="0 0 14 14" fill="none" xmlns="http://www.w3.org/2000/svg">
<g>
<path d="M6.41669 9.33327V9.91665H7.58333V9.33327H6.41669ZM7.58333 6.99996V6.41663H6.41669V6.99996H7.58333ZM10.5 5.24996C10.5 6.43775 9.90999 7.70192 9.00188 8.50727L9.77594 9.3801C10.9207 8.36489 11.6666 6.78848 11.6666 5.24996H10.5ZM7 2.33329C8.02657 2.33329 8.90913 2.61712 9.52219 3.10919C10.1214 3.59011 10.5 4.29689 10.5 5.24996H11.6666C11.6666 3.94786 11.1312 2.90464 10.2525 2.19935C9.38765 1.50522 8.22859 1.16663 7 1.16663V2.33329ZM3.5 5.24996C3.5 4.29689 3.87863 3.59011 4.47779 3.10919C5.09085 2.61712 5.97343 2.33329 7 2.33329V1.16663C5.77142 1.16663 4.61233 1.50522 3.74752 2.19935C2.86881 2.90464 2.33334 3.94786 2.33334 5.24996H3.5ZM4.99815 8.50727C4.09001 7.70192 3.5 6.43775 3.5 5.24996H2.33334C2.33334 6.78848 3.07927 8.36489 4.22408 9.3801L4.99815 8.50727ZM5.83334 11.375V10.208H4.66667V11.375H5.83334ZM6.125 11.6666C5.96393 11.6666 5.83334 11.536 5.83334 11.375H4.66667C4.66667 12.1804 5.31959 12.8333 6.125 12.8333V11.6666ZM7.87502 11.6666H6.125V12.8333H7.87502V11.6666ZM8.16664 11.375C8.16664 11.536 8.03609 11.6666 7.87502 11.6666V12.8333C8.68044 12.8333 9.33333 12.1804 9.33333 11.375H8.16664ZM8.16664 10.208V11.375H9.33333V10.208H8.16664ZM4.22408 9.3801C4.51317 9.63651 4.66667 9.9345 4.66667 10.208H5.83334C5.83334 9.49623 5.44625 8.90466 4.99815 8.50727L4.22408 9.3801ZM9.00188 8.50727C8.55374 8.90466 8.16664 9.49623 8.16664 10.208H9.33333C9.33333 9.9345 9.48684 9.63651 9.77594 9.3801L9.00188 8.50727ZM5.25002 9.91665H8.75002V8.74996H5.25002V9.91665ZM7.58333 9.33327V6.99996H6.41669V9.33327H7.58333Z"/>
<path fill-rule="evenodd" clip-rule="evenodd" d="M13.9384 2.65583C14.0825 2.94399 13.9657 3.29438 13.6775 3.43845L13.0942 3.73011C12.806 3.87418 12.4556 3.75736 12.3115 3.4692C12.1675 3.18104 12.2843 2.83065 12.5724 2.68659L13.1558 2.39493C13.444 2.25086 13.7944 2.36767 13.9384 2.65583ZM0.0615882 2.65584C0.205664 2.36768 0.556056 2.25088 0.844212 2.39496L1.42755 2.68662C1.7157 2.8307 1.8325 3.18109 1.68843 3.46924C1.54435 3.7574 1.19396 3.8742 0.905802 3.73013L0.322469 3.43846C0.034313 3.29439 -0.0824872 2.944 0.0615882 2.65584ZM1.68843 6.44745C1.83251 6.7356 1.71571 7.086 1.42756 7.23007L0.844223 7.52174C0.556069 7.66582 0.205675 7.54903 0.0615969 7.26087C-0.0824813 6.97272 0.0343153 6.62232 0.32247 6.47824L0.905803 6.18658C1.19396 6.0425 1.54435 6.15929 1.68843 6.44745ZM12.3115 6.44747C12.4556 6.15931 12.806 6.0425 13.0942 6.18657L13.6775 6.47824C13.9657 6.62231 14.0825 6.9727 13.9384 7.26085C13.7944 7.54901 13.444 7.66582 13.1558 7.52175L12.5724 7.23008C12.2843 7.08601 12.1675 6.73562 12.3115 6.44747Z"/>
</g>
</svg>
