<svg width="24" height="24" viewBox="0 0 24 24" xmlns="http://www.w3.org/2000/svg">
<path d="M4.92867 5.92893C8.83391 2.02369 15.166 2.02369 19.0712 5.92893C22.8446 9.7023 22.9715 15.7402 19.4531 19.6672C19.0846 20.0785 18.4523 20.1138 18.041 19.7453C17.6297 19.3768 17.5954 18.7446 17.9638 18.3332C20.7776 15.1928 20.6755 10.3613 17.6572 7.34299C14.533 4.2188 9.46692 4.2188 6.34273 7.34299C3.32444 10.3613 3.22234 15.1928 6.03609 18.3332C6.40452 18.7446 6.37024 19.3768 5.95894 19.7453C5.54761 20.1138 4.91536 20.0785 4.54683 19.6672C1.0284 15.7402 1.15531 9.70229 4.92867 5.92893ZM8.29195 9.29319C8.65815 8.92719 9.23713 8.90434 9.62984 9.22483L9.70601 9.29319L12.706 12.2932L12.7744 12.3694C13.0945 12.7621 13.0719 13.3412 12.706 13.7073C12.3398 14.0735 11.7599 14.0963 11.3671 13.7756L11.2919 13.7073L8.29195 10.7073L8.22261 10.6311C7.90251 10.2383 7.92592 9.65922 8.29195 9.29319Z"/>
</svg>
