<svg width="24" height="24" viewBox="0 0 24 24" xmlns="http://www.w3.org/2000/svg">
<path fill-rule="evenodd" clip-rule="evenodd" d="M3 5.5C3 4.119 4.12 3 5.5 3H18.5C19.88 3 21 4.119 21 5.5V18.5C21 19.881 19.88 21 18.5 21H5.5C4.12 21 3 19.881 3 18.5V5.5ZM5.75999 9.87H7.01999V13.116H8.66399V14.13H5.75999V9.87ZM8.99156 14.13V9.87H10.2516V14.13H8.99156ZM12.538 12.408L11.854 9.87H10.492L11.926 14.13H13.414L14.848 9.87H13.486L12.802 12.408C12.738 12.656 12.698 12.852 12.682 12.996H12.658C12.642 12.852 12.602 12.656 12.538 12.408ZM16.3455 13.224H18.2415V14.13H15.0855V9.87H18.1995V10.776H16.3455V11.514H18.0975V12.396H16.3455V13.224Z"/>
</svg>
