<svg width="24" height="24" viewBox="0 0 24 24" xmlns="http://www.w3.org/2000/svg">
<path fill-rule="evenodd" clip-rule="evenodd" d="M5.5 3C4.12 3 3 4.119 3 5.5V18.5C3 19.881 4.12 21 5.5 21H18.5C19.88 21 21 19.881 21 18.5V5.5C21 4.119 19.88 3 18.5 3H5.5ZM5 5.5C5 5.224 5.22 5 5.5 5H18.5C18.78 5 19 5.224 19 5.5V18.5C19 18.776 18.78 19 18.5 19H5.5C5.22 19 5 18.776 5 18.5V5.5ZM7.01999 9.87H5.75999V14.13H8.66399V13.116H7.01999V9.87ZM8.99156 9.87V14.13H10.2516V9.87H8.99156ZM11.854 9.87L12.538 12.408C12.602 12.656 12.642 12.852 12.658 12.996H12.682C12.698 12.852 12.738 12.656 12.802 12.408L13.486 9.87H14.848L13.414 14.13H11.926L10.492 9.87H11.854ZM18.2415 13.224H16.3455V12.396H18.0975V11.514H16.3455V10.776H18.1995V9.87H15.0855V14.13H18.2415V13.224Z"/>
</svg>
