<svg width="14" height="14" viewBox="0 0 14 14" fill="none" xmlns="http://www.w3.org/2000/svg">
<path d="M7.5833 1.16699V3.50033H6.41664V1.16699H7.5833ZM6.41664 10.5003V12.8337H7.5833V10.5003H6.41664ZM10.0881 2.01866L8.66772 3.86783L9.59347 4.57949L11.0139 2.73033L10.0881 2.01866ZM4.40647 9.42116L2.98605 11.2703L3.9118 11.982L5.33222 10.1328L4.40647 9.42116ZM3.82314 5.41949L1.59189 4.73699L1.25122 5.85116L3.48247 6.53366L3.82314 5.41949ZM12.7481 8.14949L10.5175 7.46699L10.1762 8.58116L12.4081 9.26366L12.7481 8.14949ZM12.4075 4.73699L10.1762 5.41949L10.5175 6.53366L12.7487 5.85116L12.4075 4.73699ZM3.48247 7.46699L1.25122 8.14949L1.59189 9.26366L3.82314 8.58116L3.48247 7.46699ZM5.33222 3.86783L3.9118 2.01866L2.98605 2.72449L4.40647 4.57949L5.33222 3.86783ZM11.0139 11.2703L9.59347 9.42116L8.66772 10.1328L10.0881 11.982L11.0139 11.2703Z"/>
</svg>
