<svg width="24" height="24" xmlns="http://www.w3.org/2000/svg"><path d="M11.400 2.041 C 10.260 2.181,9.198 2.714,8.390 3.555 C 7.740 4.231,7.311 5.046,7.095 6.020 C 7.037 6.279,7.020 6.604,7.002 7.733 L 6.980 9.126 6.720 9.217 C 5.350 9.697,4.370 10.816,4.083 12.227 C 4.004 12.615,4.000 12.760,4.000 15.500 C 4.000 18.240,4.004 18.385,4.083 18.773 C 4.311 19.892,4.985 20.851,5.956 21.436 C 6.285 21.635,6.810 21.832,7.243 21.921 C 7.618 21.997,7.800 22.000,12.000 22.000 C 16.200 22.000,16.382 21.997,16.757 21.921 C 18.117 21.643,19.193 20.755,19.704 19.488 C 19.779 19.300,19.877 18.972,19.921 18.757 C 19.995 18.390,20.000 18.203,20.000 15.500 C 20.000 12.797,19.995 12.610,19.921 12.243 C 19.628 10.806,18.637 9.680,17.245 9.204 C 16.677 9.009,16.475 9.000,12.607 9.000 L 8.993 9.000 9.009 7.730 C 9.025 6.518,9.030 6.445,9.124 6.139 C 9.418 5.183,10.187 4.415,11.139 4.125 C 11.555 3.999,12.354 3.983,12.753 4.094 C 13.483 4.296,14.111 4.749,14.513 5.363 C 14.666 5.598,14.747 5.780,14.940 6.332 C 15.251 7.215,16.526 7.207,16.813 6.319 C 16.900 6.050,16.898 5.968,16.795 5.603 C 16.566 4.783,16.160 4.105,15.525 3.480 C 14.772 2.739,13.930 2.281,12.984 2.098 C 12.582 2.021,11.799 1.993,11.400 2.041 M16.523 11.073 C 17.212 11.253,17.795 11.860,17.941 12.549 C 18.026 12.948,18.026 18.052,17.941 18.451 C 17.863 18.821,17.710 19.091,17.400 19.404 C 17.119 19.690,16.854 19.846,16.492 19.940 C 16.149 20.030,7.851 20.030,7.508 19.940 C 6.823 19.762,6.249 19.194,6.073 18.523 C 6.012 18.287,6.004 17.977,6.002 15.528 C 6.000 12.483,6.002 12.452,6.265 12.014 C 6.546 11.543,6.988 11.201,7.477 11.073 C 7.718 11.010,8.102 11.005,12.000 11.005 C 15.898 11.005,16.282 11.010,16.523 11.073 M11.695 13.057 C 11.466 13.129,11.256 13.299,11.128 13.516 L 11.020 13.700 11.020 15.503 L 11.020 17.306 11.141 17.503 C 11.543 18.156,12.457 18.156,12.859 17.503 L 12.980 17.306 12.980 15.503 L 12.980 13.700 12.872 13.516 C 12.628 13.101,12.150 12.915,11.695 13.057"></path></svg>