<svg width="24" height="24" viewBox="0 0 24 24" fill="none" xmlns="http://www.w3.org/2000/svg">
<path fill-rule="evenodd" clip-rule="evenodd" d="M8.36754 3.40683C8.77808 3.26999 9.22192 3.26999 9.63246 3.40683L15 5.19601L19.3675 3.74017C20.6626 3.30848 22 4.27242 22 5.63753L20 5.63753L16 6.97087V17.8627L20 16.5293L20 5.63753L22 5.63753V16.5293C22 17.3902 21.4491 18.1545 20.6325 18.4267L15.6325 20.0934C15.2219 20.2302 14.7781 20.2302 14.3675 20.0934L9 18.3042L4.63246 19.76C3.33739 20.1917 2 19.2278 2 17.8627V6.97087C2 6.11001 2.55086 5.34573 3.36754 5.0735L8.36754 3.40683ZM14 17.8627V6.97087L10 5.63753V16.5293L14 17.8627ZM8 16.5293V5.63753L4 6.97087V17.8627L8 16.5293Z" fill="white"/>
</svg>
