<svg width="24" height="24" viewBox="0 0 24 24" fill="none" xmlns="http://www.w3.org/2000/svg">
<g clip-path="url(#clip0_3_2)">
<path d="M19.808 10.283C20.255 9.283 20.5 7.983 20.5 6.846C20.5 3.782 18.95 2 16.113 2C13.195 2 11.488 4.263 11.488 7.246C11.488 10.201 12.553 12.844 14.813 14C13.863 15.916 12.57 18.229 11.313 19.5C9.02699 16.712 6.65999 12.26 5.81299 5.004H3.125C4.683 17.092 9.325 20.941 10.555 21.679C11.249 22.101 11.847 22.079 12.482 21.719C13.48 21.146 15.639 17.857 17.301 14.319C17.996 14.319 19.664 14.507 20.499 14.319L20.5 12.1742C19.99 12.2902 19.258 12.5 18.813 12.5C16.313 12.5 13.813 10.565 13.813 7.5C13.813 6 14.695 4 15.813 4C17.313 4 18.5 5.5 18.5 7C18.5 7.806 18.0726 8.976 17.9116 9.5C17.9116 9.5 18.313 10 19.808 10.283Z"/>
</g>
<defs>
<clipPath id="clip0_3_2">
<rect width="24" height="24" fill="white"/>
</clipPath>
</defs>
</svg>
