<svg width="24" height="24" viewBox="0 0 24 24" fill="none" xmlns="http://www.w3.org/2000/svg">
<path fill-rule="evenodd" clip-rule="evenodd" d="M3.33329 3.33333C3.33329 2.73502 3.81832 2.25 4.41663 2.25H19.5833C20.1816 2.25 20.6666 2.73502 20.6666 3.33333C20.6666 3.93164 20.1816 4.41667 19.5833 4.41667H4.41663C3.81832 4.41667 3.33329 3.93164 3.33329 3.33333ZM1.16663 8.75C1.16663 6.95508 2.6217 5.5 4.41663 5.5H19.5833C21.3782 5.5 22.8333 6.95508 22.8333 8.75V18.5C22.8333 20.2949 21.3782 21.75 19.5833 21.75H4.41663C2.6217 21.75 1.16663 20.2949 1.16663 18.5V8.75ZM4.41663 7.66667C3.81832 7.66667 3.33329 8.15169 3.33329 8.75V18.5C3.33329 19.0983 3.81832 19.5833 4.41663 19.5833H19.5833C20.1816 19.5833 20.6666 19.0983 20.6666 18.5V8.75C20.6666 8.15169 20.1816 7.66667 19.5833 7.66667H4.41663ZM10.4473 10.4819C10.8227 10.3015 11.2682 10.3522 11.5934 10.6124L14.3017 12.7791C14.5587 12.9846 14.7083 13.2959 14.7083 13.625C14.7083 13.9541 14.5587 14.2654 14.3017 14.4709L11.5934 16.6376C11.2682 16.8978 10.8227 16.9485 10.4473 16.7681C10.072 16.5877 9.83329 16.2081 9.83329 15.7917V11.4583C9.83329 11.0419 10.072 10.6623 10.4473 10.4819Z" />
</svg>
