<svg width="24" height="24" xmlns="http://www.w3.org/2000/svg"><path d="M9.358 1.058 C 8.217 1.246,7.142 1.976,6.569 2.953 C 5.696 4.441,5.848 6.269,6.954 7.584 C 7.718 8.491,8.912 9.028,10.090 8.994 L 10.520 8.981 10.663 9.199 C 11.108 9.874,11.749 10.396,12.512 10.704 C 14.560 11.529,16.874 10.540,17.705 8.484 C 17.994 7.770,18.070 6.976,17.921 6.243 C 17.628 4.806,16.637 3.680,15.244 3.204 C 14.863 3.073,14.238 2.989,13.834 3.013 L 13.488 3.034 13.335 2.787 C 13.147 2.481,12.623 1.948,12.291 1.725 C 11.410 1.134,10.357 0.894,9.358 1.058 M10.360 3.043 C 10.710 3.100,11.071 3.284,11.371 3.562 C 11.508 3.688,11.611 3.799,11.600 3.807 C 10.791 4.434,10.283 5.244,10.082 6.228 C 10.037 6.451,10.000 6.715,10.000 6.816 C 10.000 6.997,9.998 7.000,9.868 7.000 C 9.487 7.000,8.997 6.784,8.653 6.465 C 7.665 5.547,7.829 3.981,8.987 3.279 C 9.389 3.036,9.839 2.958,10.360 3.043 M14.523 5.073 C 15.262 5.266,15.850 5.924,15.967 6.690 C 16.067 7.343,15.873 7.933,15.403 8.404 C 15.002 8.807,14.547 9.000,14.000 9.000 C 13.485 9.000,13.038 8.822,12.653 8.465 C 11.323 7.229,12.189 5.005,14.000 5.005 C 14.143 5.005,14.378 5.036,14.523 5.073 M8.440 12.066 C 7.997 12.132,7.601 12.250,5.692 12.885 C 3.689 13.551,3.511 13.618,3.348 13.761 C 3.242 13.855,3.135 14.001,3.081 14.127 C 2.870 14.616,3.122 15.208,3.631 15.423 C 3.958 15.561,4.040 15.541,6.300 14.789 C 7.633 14.346,8.509 14.075,8.660 14.059 C 9.003 14.024,13.203 14.381,13.247 14.449 C 13.298 14.531,13.285 14.607,13.183 14.826 C 13.060 15.091,12.838 15.334,12.627 15.436 C 12.535 15.481,12.037 15.645,11.521 15.801 C 11.005 15.957,10.523 16.121,10.450 16.166 C 10.196 16.323,10.000 16.686,10.000 16.998 C 10.000 17.528,10.472 18.000,11.001 18.000 C 11.081 18.000,12.797 17.505,14.813 16.900 C 16.829 16.295,18.535 15.800,18.604 15.800 C 18.789 15.800,19.000 16.024,19.000 16.221 C 19.000 16.439,18.867 16.542,17.835 17.128 C 14.829 18.833,12.479 19.808,10.903 20.003 C 9.790 20.140,7.675 19.799,5.648 19.156 C 5.162 19.002,5.148 19.000,4.524 19.000 C 3.641 19.000,3.373 19.099,3.128 19.516 C 3.037 19.672,3.020 19.746,3.020 20.000 C 3.020 20.256,3.036 20.328,3.131 20.489 C 3.366 20.888,3.620 20.996,4.340 20.999 C 4.821 21.001,4.893 21.012,5.300 21.142 C 5.883 21.329,7.207 21.654,7.880 21.776 C 9.601 22.087,10.729 22.110,11.919 21.858 C 13.715 21.477,16.266 20.351,19.225 18.633 C 20.067 18.144,20.318 17.945,20.580 17.560 C 21.076 16.828,21.131 15.937,20.729 15.120 C 20.546 14.746,20.096 14.280,19.733 14.089 C 19.228 13.823,18.566 13.733,18.032 13.860 C 17.894 13.893,17.222 14.088,16.540 14.293 L 15.300 14.666 15.275 14.363 C 15.230 13.825,15.061 13.462,14.663 13.047 C 14.370 12.740,14.029 12.541,13.657 12.461 C 13.350 12.394,9.148 12.037,8.775 12.045 C 8.646 12.048,8.495 12.058,8.440 12.066"></path></svg>