<svg width="24" height="24" viewBox="0 0 24 24" xmlns="http://www.w3.org/2000/svg">
<path fill-rule="evenodd" clip-rule="evenodd" d="M3.70151 9.32577C4.22465 5.14064 7.78232 2 12 2C16.2177 2 19.7754 5.14064 20.2985 9.32577L20.9613 14.6279C21.1851 16.4185 19.7889 18 17.9844 18H16.9C16.4367 20.2822 14.419 22 12 22C9.58106 22 7.5633 20.2822 7.10003 18H6.01558C4.21108 18 2.81493 16.4185 3.03875 14.6279L3.70151 9.32577ZM9.17072 18C9.58256 19.1652 10.6938 20 12 20C13.3062 20 14.4175 19.1652 14.8293 18H9.17072ZM6.01558 16C5.41408 16 4.94869 15.4728 5.0233 14.876L5.68607 9.57384C6.0841 6.38957 8.79096 4 12 4C15.2091 4 17.9159 6.38957 18.314 9.57384L18.9767 14.876C19.0513 15.4728 18.5859 16 17.9844 16H6.01558Z"/>
</svg>
