<svg width="14" height="14" viewBox="0 0 14 14" xmlns="http://www.w3.org/2000/svg">
<path d="M2.16256 1.33736C1.93475 1.10955 1.56541 1.10955 1.3376 1.33736C1.1098 1.56516 1.1098 1.93451 1.3376 2.16232L2.7855 3.61022C2.46865 4.16448 2.25919 4.78898 2.18754 5.45778L1.76493 8.89931C1.67952 9.59482 2.22216 10.2082 2.9229 10.2082H9.38346L11.8376 12.6623C12.0654 12.8901 12.4348 12.8901 12.6626 12.6623C12.8904 12.4345 12.8904 12.0652 12.6626 11.8374L2.16256 1.33736Z"/>
<path d="M12.2351 8.89931C12.2932 9.37188 12.0613 9.80651 11.6868 10.0366L3.92014 2.26992C4.76367 1.57845 5.84199 1.1665 7.00002 1.1665C9.45456 1.1665 11.551 3.01721 11.8125 5.45778L12.2351 8.89931Z"/>
<path d="M4.32604 11.0832C4.77612 12.1133 5.804 12.8332 7.00002 12.8332C8.19604 12.8332 9.22392 12.1133 9.67399 11.0832H4.32604Z"/>
</svg>
