<svg width="24" height="24" viewBox="0 0 24 24" xmlns="http://www.w3.org/2000/svg">
<path fill-rule="evenodd" clip-rule="evenodd" d="M2.29289 2.29289C2.68342 1.90237 3.31658 1.90237 3.70711 2.29289L21.7071 20.2929C22.0976 20.6834 22.0976 21.3166 21.7071 21.7071C21.3166 22.0976 20.6834 22.0976 20.2929 21.7071L16.8411 18.2553C16.2842 20.4092 14.3279 22 12 22C9.58104 22 7.56329 20.2822 7.10002 18H6.05022C4.22758 18 2.82606 16.3881 3.07932 14.5831L3.81504 9.33971C3.93797 8.21384 4.2847 7.16021 4.80822 6.22243L2.29289 3.70711C1.90237 3.31658 1.90237 2.68342 2.29289 2.29289ZM6.29776 7.71197C6.04303 8.28806 5.8723 8.91192 5.80184 9.56954C5.80068 9.58037 5.79935 9.59117 5.79783 9.60196L5.05992 14.861C4.9755 15.4627 5.44267 16 6.05022 16H14.5858L6.29776 7.71197ZM14.8293 18H9.17071C9.58254 19.1652 10.6938 20 12 20C13.3062 20 14.4175 19.1652 14.8293 18ZM8.58484 2.74052C9.62918 2.26395 10.7874 2 12 2C16.2078 2 19.7385 5.17264 20.1868 9.35648L20.6729 13.8935C20.7317 14.4426 20.3342 14.9355 19.7851 14.9943C19.236 15.0531 18.7431 14.6557 18.6843 14.1065L18.1982 9.56954C17.8588 6.40199 15.1857 4 12 4C11.0797 4 10.2042 4.19996 9.41516 4.56002C8.91271 4.7893 8.31953 4.56787 8.09025 4.06543C7.86097 3.56298 8.0824 2.9698 8.58484 2.74052Z"/>
</svg>
