<svg width="20" height="20" viewBox="0 0 20 20" fill="none" xmlns="http://www.w3.org/2000/svg">
<path fill-rule="evenodd" clip-rule="evenodd" d="M7.80733 8.16329L4.37437 4.53H14.3391L7.80733 8.16329ZM7.02907 9.71685C6.9901 9.57744 6.91779 9.44961 6.81837 9.34439L2.24541 4.50457C1.70797 3.93578 2.11121 3 2.89375 3H17.1067C17.1405 3 17.1738 3.00181 17.2063 3.00531C17.8111 3.07047 18.1776 3.72249 17.9125 4.27484C17.9085 4.28326 17.9043 4.29166 17.8999 4.30003C17.8925 4.31443 17.8846 4.32876 17.8762 4.343L10.5776 16.7963C10.1795 17.4754 9.16095 17.3435 8.94902 16.5854L7.02907 9.71685ZM15.2709 5.76243L8.55638 9.4974L10.0178 14.7256L15.2709 5.76243Z" />
</svg>
