<svg width="32" height="32" viewBox="0 0 32 32" fill="none" xmlns="http://www.w3.org/2000/svg">
<path d="M16 7.66667C16.7364 7.66667 17.3333 7.06971 17.3333 6.33333C17.3333 5.59695 16.7364 5 16 5C15.2636 5 14.6667 5.59695 14.6667 6.33333C14.6667 7.06971 15.2636 7.66667 16 7.66667Z"/>
<path d="M16 17.3333C16.7364 17.3333 17.3333 16.7364 17.3333 16C17.3333 15.2636 16.7364 14.6667 16 14.6667C15.2636 14.6667 14.6667 15.2636 14.6667 16C14.6667 16.7364 15.2636 17.3333 16 17.3333Z"/>
<path d="M16 27C16.7364 27 17.3333 26.403 17.3333 25.6667C17.3333 24.9303 16.7364 24.3333 16 24.3333C15.2636 24.3333 14.6667 24.9303 14.6667 25.6667C14.6667 26.403 15.2636 27 16 27Z"/>
<path d="M25.6667 7.66667C26.403 7.66667 27 7.06971 27 6.33333C27 5.59695 26.403 5 25.6667 5C24.9303 5 24.3333 5.59695 24.3333 6.33333C24.3333 7.06971 24.9303 7.66667 25.6667 7.66667Z"/>
<path d="M25.6667 17.3333C26.403 17.3333 27 16.7364 27 16C27 15.2636 26.403 14.6667 25.6667 14.6667C24.9303 14.6667 24.3333 15.2636 24.3333 16C24.3333 16.7364 24.9303 17.3333 25.6667 17.3333Z"/>
<path d="M25.6667 27C26.403 27 27 26.403 27 25.6667C27 24.9303 26.403 24.3333 25.6667 24.3333C24.9303 24.3333 24.3333 24.9303 24.3333 25.6667C24.3333 26.403 24.9303 27 25.6667 27Z"/>
<path d="M6.33333 17.3333C7.06971 17.3333 7.66667 16.7364 7.66667 16C7.66667 15.2636 7.06971 14.6667 6.33333 14.6667C5.59695 14.6667 5 15.2636 5 16C5 16.7364 5.59695 17.3333 6.33333 17.3333Z"/>
<path d="M6.33333 27C7.06971 27 7.66667 26.403 7.66667 25.6667C7.66667 24.9303 7.06971 24.3333 6.33333 24.3333C5.59695 24.3333 5 24.9303 5 25.6667C5 26.403 5.59695 27 6.33333 27Z"/>
<path d="M6.33333 7.66667C7.06971 7.66667 7.66667 7.06971 7.66667 6.33333C7.66667 5.59695 7.06971 5 6.33333 5C5.59695 5 5 5.59695 5 6.33333C5 7.06971 5.59695 7.66667 6.33333 7.66667Z"/>
<path fill-rule="evenodd" clip-rule="evenodd" d="M6.33333 6C6.14924 6 6 6.14924 6 6.33333C6 6.51743 6.14924 6.66667 6.33333 6.66667C6.51743 6.66667 6.66667 6.51743 6.66667 6.33333C6.66667 6.14924 6.51743 6 6.33333 6ZM4 6.33333C4 5.04467 5.04467 4 6.33333 4C7.622 4 8.66667 5.04467 8.66667 6.33333C8.66667 7.622 7.622 8.66667 6.33333 8.66667C5.04467 8.66667 4 7.622 4 6.33333ZM16 6C15.8159 6 15.6667 6.14924 15.6667 6.33333C15.6667 6.51743 15.8159 6.66667 16 6.66667C16.1841 6.66667 16.3333 6.51743 16.3333 6.33333C16.3333 6.14924 16.1841 6 16 6ZM13.6667 6.33333C13.6667 5.04467 14.7113 4 16 4C17.2887 4 18.3333 5.04467 18.3333 6.33333C18.3333 7.622 17.2887 8.66667 16 8.66667C14.7113 8.66667 13.6667 7.622 13.6667 6.33333ZM25.6667 6C25.4826 6 25.3333 6.14924 25.3333 6.33333C25.3333 6.51743 25.4826 6.66667 25.6667 6.66667C25.8508 6.66667 26 6.51743 26 6.33333C26 6.14924 25.8508 6 25.6667 6ZM23.3333 6.33333C23.3333 5.04467 24.378 4 25.6667 4C26.9553 4 28 5.04467 28 6.33333C28 7.622 26.9553 8.66667 25.6667 8.66667C24.378 8.66667 23.3333 7.622 23.3333 6.33333ZM6.33333 15.6667C6.14924 15.6667 6 15.8159 6 16C6 16.1841 6.14924 16.3333 6.33333 16.3333C6.51743 16.3333 6.66667 16.1841 6.66667 16C6.66667 15.8159 6.51743 15.6667 6.33333 15.6667ZM4 16C4 14.7113 5.04467 13.6667 6.33333 13.6667C7.622 13.6667 8.66667 14.7113 8.66667 16C8.66667 17.2887 7.622 18.3333 6.33333 18.3333C5.04467 18.3333 4 17.2887 4 16ZM16 15.6667C15.8159 15.6667 15.6667 15.8159 15.6667 16C15.6667 16.1841 15.8159 16.3333 16 16.3333C16.1841 16.3333 16.3333 16.1841 16.3333 16C16.3333 15.8159 16.1841 15.6667 16 15.6667ZM13.6667 16C13.6667 14.7113 14.7113 13.6667 16 13.6667C17.2887 13.6667 18.3333 14.7113 18.3333 16C18.3333 17.2887 17.2887 18.3333 16 18.3333C14.7113 18.3333 13.6667 17.2887 13.6667 16ZM25.6667 15.6667C25.4826 15.6667 25.3333 15.8159 25.3333 16C25.3333 16.1841 25.4826 16.3333 25.6667 16.3333C25.8508 16.3333 26 16.1841 26 16C26 15.8159 25.8508 15.6667 25.6667 15.6667ZM23.3333 16C23.3333 14.7113 24.378 13.6667 25.6667 13.6667C26.9553 13.6667 28 14.7113 28 16C28 17.2887 26.9553 18.3333 25.6667 18.3333C24.378 18.3333 23.3333 17.2887 23.3333 16ZM6.33333 25.3333C6.14924 25.3333 6 25.4826 6 25.6667C6 25.8508 6.14924 26 6.33333 26C6.51743 26 6.66667 25.8508 6.66667 25.6667C6.66667 25.4826 6.51743 25.3333 6.33333 25.3333ZM4 25.6667C4 24.378 5.04467 23.3333 6.33333 23.3333C7.622 23.3333 8.66667 24.378 8.66667 25.6667C8.66667 26.9553 7.622 28 6.33333 28C5.04467 28 4 26.9553 4 25.6667ZM16 25.3333C15.8159 25.3333 15.6667 25.4826 15.6667 25.6667C15.6667 25.8508 15.8159 26 16 26C16.1841 26 16.3333 25.8508 16.3333 25.6667C16.3333 25.4826 16.1841 25.3333 16 25.3333ZM13.6667 25.6667C13.6667 24.378 14.7113 23.3333 16 23.3333C17.2887 23.3333 18.3333 24.378 18.3333 25.6667C18.3333 26.9553 17.2887 28 16 28C14.7113 28 13.6667 26.9553 13.6667 25.6667ZM25.6667 25.3333C25.4826 25.3333 25.3333 25.4826 25.3333 25.6667C25.3333 25.8508 25.4826 26 25.6667 26C25.8508 26 26 25.8508 26 25.6667C26 25.4826 25.8508 25.3333 25.6667 25.3333ZM23.3333 25.6667C23.3333 24.378 24.378 23.3333 25.6667 23.3333C26.9553 23.3333 28 24.378 28 25.6667C28 26.9553 26.9553 28 25.6667 28C24.378 28 23.3333 26.9553 23.3333 25.6667Z"/>
</svg>
