<svg width="24" height="24" viewBox="0 0 24 24" xmlns="http://www.w3.org/2000/svg">
<path d="M12.0016 12C12.5537 12.0003 13.0016 12.4479 13.0016 13C13.0016 13.5521 12.5537 13.9997 12.0016 14C8.75973 14 6.39053 16.0982 5.68128 19H14.0016L14.1032 19.0049C14.6075 19.056 15.0016 19.4822 15.0016 20C15.0016 20.5178 14.6075 20.944 14.1032 20.9951L14.0016 21H5.59925C4.4642 20.9998 3.40715 19.9856 3.6969 18.6963L3.78382 18.3418C4.75154 14.7062 7.83672 12 12.0016 12ZM14.5016 6.5C14.5016 5.11945 13.3821 4.00026 12.0016 4C10.6209 4 9.50159 5.11929 9.50159 6.5C9.50159 7.88071 10.6209 9 12.0016 9C13.3821 8.99974 14.5016 7.88055 14.5016 6.5ZM16.5016 6.5C16.5016 8.98512 14.4867 10.9997 12.0016 11C9.51631 11 7.50159 8.98528 7.50159 6.5C7.50159 4.01472 9.51631 2 12.0016 2C14.4867 2.00026 16.5016 4.01488 16.5016 6.5Z"/>
<path d="M18 11C16.3431 11 15 12.3431 15 14C15 15.2107 15.7172 16.254 16.75 16.728V20.2597C16.75 20.4116 16.819 20.5552 16.9377 20.6501L17.6877 21.2501C17.8703 21.3962 18.1297 21.3962 18.3123 21.2501L19.0623 20.6501C19.181 20.5552 19.25 20.4116 19.25 20.2597V19.427L18.5 18.75L19.25 18V16.728C20.2828 16.254 21 15.2107 21 14C21 12.3431 19.6569 11 18 11ZM17 14C17 13.4477 17.4477 13 18 13C18.5523 13 19 13.4477 19 14C19 14.5523 18.5523 15 18 15C17.4477 15 17 14.5523 17 14Z"/>
</svg>
