<svg width="780" height="780" fill="none" xmlns="http://www.w3.org/2000/svg"><path fill="#253747" d="M0 0h780v780H0z"/><g clip-path="url(#clip0_12008_60724)"><mask id="a" style="mask-type:luminance" maskUnits="userSpaceOnUse" x="40" y="166" width="700" height="448"><path d="M740 166H40v448h700V166z" fill="#fff"/></mask><g mask="url(#a)"><path d="M740 166H40v448h700V166z" fill="#253747"/><path d="M229.407 584.472v-25.926c0-9.917-6.051-16.411-16.439-16.411-5.193 0-10.84 1.711-14.723 7.349-3.025-4.731-7.362-7.349-13.866-7.349-4.337 0-8.673 1.309-12.101 6.04v-5.185h-9.077v41.482h9.077v-22.905c0-7.35 3.882-10.824 9.932-10.824 6.051 0 9.077 3.876 9.077 10.824v22.905h9.076v-22.905c0-7.35 4.336-10.824 9.934-10.824 6.05 0 9.075 3.876 9.075 10.824v22.905h10.035zm134.628-41.482h-14.723v-12.535h-9.076v12.535h-8.218v8.206h8.218v19.03c0 9.515 3.883 15.102 14.27 15.102 3.883 0 8.219-1.309 11.244-3.02l-2.622-7.804c-2.622 1.713-5.647 2.165-7.816 2.165-4.336 0-6.05-2.617-6.05-6.896v-18.577h14.723v-8.206h.05zm77.047-.906c-5.193 0-8.673 2.618-10.841 6.041v-5.185h-9.076v41.482h9.076v-23.359c0-6.897 3.025-10.823 8.673-10.823 1.714 0 3.882.453 5.647.855l2.622-8.659c-1.815-.352-4.387-.352-6.101-.352zm-116.427 4.33c-4.335-3.021-10.387-4.33-16.892-4.33-10.386 0-17.294 5.186-17.294 13.391 0 6.897 5.193 10.824 14.269 12.083l4.337.452c4.74.857 7.361 2.165 7.361 4.33 0 3.02-3.479 5.185-9.53 5.185-6.05 0-10.841-2.165-13.866-4.33l-4.336 6.898c4.74 3.473 11.245 5.185 17.748 5.185 12.102 0 19.061-5.639 19.061-13.391 0-7.35-5.648-11.227-14.27-12.536l-4.337-.452c-3.882-.454-6.907-1.309-6.907-3.877 0-3.021 3.025-4.732 7.815-4.732 5.194 0 10.388 2.165 13.009 3.474l3.832-7.35zm241.476-4.33c-5.194 0-8.673 2.618-10.841 6.041v-5.185h-9.076v41.482h9.076v-23.359c0-6.897 3.025-10.823 8.673-10.823 1.714 0 3.882.453 5.647.855l2.622-8.558c-1.765-.453-4.336-.453-6.101-.453zm-115.973 21.648c0 12.535 8.673 21.596 22.086 21.596 6.05 0 10.387-1.309 14.723-4.732l-4.336-7.35c-3.48 2.618-6.909 3.876-10.841 3.876-7.362 0-12.555-5.185-12.555-13.39 0-7.804 5.193-12.989 12.555-13.392 3.882 0 7.361 1.309 10.841 3.877l4.336-7.351c-4.336-3.473-8.673-4.731-14.723-4.731-13.413-.051-22.086 9.061-22.086 21.597zm83.954 0V542.99h-9.076v5.185c-3.025-3.876-7.361-6.04-13.009-6.04-11.698 0-20.774 9.061-20.774 21.597 0 12.535 9.076 21.596 20.774 21.596 6.051 0 10.387-2.165 13.009-6.041v5.185h9.076v-20.74zm-33.329 0c0-7.351 4.739-13.392 12.555-13.392 7.362 0 12.555 5.639 12.555 13.392 0 7.35-5.193 13.39-12.555 13.39-7.765-.453-12.555-6.091-12.555-13.39zm-108.611-21.648c-12.102 0-20.775 8.659-20.775 21.597 0 12.988 8.673 21.597 21.229 21.597 6.05 0 12.101-1.712 16.891-5.639l-4.336-6.494c-3.479 2.618-7.816 4.33-12.102 4.33-5.647 0-11.244-2.618-12.555-9.917h30.708v-3.474c.403-13.341-7.412-22-19.06-22zm0 7.804c5.647 0 9.53 3.473 10.387 9.917h-21.631c.857-5.588 4.739-9.917 11.244-9.917zm225.491 13.844v-37.153h-9.076v21.596c-3.026-3.876-7.362-6.04-13.009-6.04-11.699 0-20.774 9.061-20.774 21.597 0 12.535 9.075 21.596 20.774 21.596 6.051 0 10.387-2.165 13.009-6.041v5.185h9.076v-20.74zm-33.329 0c0-7.351 4.74-13.392 12.555-13.392 7.361 0 12.556 5.639 12.556 13.392 0 7.35-5.195 13.39-12.556 13.39-7.815-.453-12.555-6.091-12.555-13.39zm-303.849 0V542.99h-9.077v5.185c-3.025-3.876-7.361-6.04-13.008-6.04-11.698 0-20.775 9.061-20.775 21.597 0 12.535 9.077 21.596 20.775 21.596 6.051 0 10.387-2.165 13.008-6.041v5.185h9.077v-20.74zm-33.733 0c0-7.351 4.74-13.392 12.555-13.392 7.362 0 12.555 5.639 12.555 13.392 0 7.35-5.193 13.39-12.555 13.39-7.815-.453-12.555-6.091-12.555-13.39z" fill="#fff"/><path d="M457.97 227.948H321.626v244.563H457.97V227.948z" fill="#FF5A00"/><path d="M330.703 350.229c0-49.687 23.396-93.787 59.297-122.281-26.421-20.741-59.751-33.276-96.106-33.276-86.123 0-155.807 69.573-155.807 155.557 0 85.985 69.684 155.558 155.807 155.558 36.355 0 69.685-12.535 96.106-33.276-35.951-28.091-59.297-72.593-59.297-122.282z" fill="#EB001B"/><path d="M641.92 350.229c0 85.985-69.685 155.558-155.806 155.558-36.356 0-69.685-12.535-96.107-33.276 36.355-28.544 59.297-72.593 59.297-122.282 0-49.687-23.396-93.787-59.297-122.281 26.371-20.741 59.701-33.276 96.055-33.276 86.173 0 155.858 70.026 155.858 155.557z" fill="#F79E1B"/></g></g><defs><clipPath id="clip0_12008_60724"><path fill="#fff" transform="translate(40 166)" d="M0 0h700v448H0z"/></clipPath></defs></svg>