<svg width="780" height="780" fill="none" xmlns="http://www.w3.org/2000/svg"><path fill="#1434CB" d="M0 0h780v780H0z"/><g clip-path="url(#clip0_12008_60701)"><mask id="a" style="mask-type:luminance" maskUnits="userSpaceOnUse" x="40" y="166" width="700" height="448"><path d="M740 166H40v448h700V166z" fill="#fff"/></mask><g mask="url(#a)"><path d="M740 166H40v448h700V166z" fill="#1434CB"/><path d="M479.585 294.227c-42.032 0-79.593 21.757-79.593 61.954 0 46.1 66.617 49.283 66.617 72.442 0 9.751-11.19 18.48-30.301 18.48-27.124 0-47.395-12.196-47.395-12.196l-8.674 40.563s23.353 10.303 54.356 10.303c45.954 0 82.114-22.825 82.114-63.711 0-48.711-66.893-51.8-66.893-73.295 0-7.639 9.185-16.009 28.242-16.009 21.502 0 39.044 8.871 39.044 8.871l8.489-39.178s-19.088-8.224-46.006-8.224zm-384.546 2.957l-1.018 5.914s17.683 3.232 33.609 9.679c20.507 7.392 21.967 11.697 25.421 25.063l37.633 144.883h50.448l77.718-185.539h-50.331L218.58 423.333l-20.378-106.93c-1.87-12.237-11.336-19.219-22.923-19.219h-80.24zm244.05 0l-39.483 185.539h47.996l39.345-185.539h-47.858zm267.69 0c-11.573 0-17.705 6.189-22.205 17.002l-70.317 168.537h50.332l9.738-28.089h61.319l5.921 28.089h44.412l-38.744-185.539h-40.456zm6.546 50.127l14.92 69.624h-39.97l25.05-69.624z" fill="#fff"/></g></g><defs><clipPath id="clip0_12008_60701"><path fill="#fff" transform="translate(40 166)" d="M0 0h700v448H0z"/></clipPath></defs></svg>