<svg width="24" height="24" xmlns="http://www.w3.org/2000/svg"><path d="M11.08 2.045A10.098 10.098 0 0 0 6.54 3.63a9.034 9.034 0 0 0-1.621 1.328 9.852 9.852 0 0 0-2.906 7.362c.071 2.119.739 4.008 2.02 5.72.397.53 1.272 1.424 1.767 1.807 1.442 1.114 2.987 1.777 4.8 2.06.647.101 2.153.101 2.8 0 2.238-.35 4.104-1.287 5.662-2.845 1.558-1.558 2.495-3.424 2.845-5.662.101-.647.101-2.153 0-2.8-.283-1.814-.948-3.362-2.06-4.8-.337-.435-1.208-1.306-1.647-1.646-2.067-1.599-4.554-2.336-7.12-2.109m1.654 1.996a7.925 7.925 0 0 1 4.82 2.215 7.979 7.979 0 0 1 1.629 9.243 7.827 7.827 0 0 1-1.687 2.302 7.485 7.485 0 0 1-2.025 1.399 7.941 7.941 0 0 1-6.942 0 7.857 7.857 0 0 1-2.682-2.1c-1.999-2.389-2.407-5.798-1.031-8.6a7.98 7.98 0 0 1 7.104-4.495c.209-.002.575.014.814.036M8.516 7.577c-1.05.402-1.349 1.7-.571 2.478a1.491 1.491 0 0 0 2.11 0c.726-.725.522-1.929-.405-2.398-.195-.099-.28-.116-.608-.125-.253-.007-.431.008-.526.045m6.564.026c-.139.062-.981.881-3.733 3.629-1.954 1.951-3.603 3.62-3.665 3.708-.403.577-.065 1.407.623 1.529.244.043.55-.007.712-.117.18-.122 7.168-7.102 7.303-7.295.227-.324.216-.811-.025-1.149-.254-.357-.797-.493-1.215-.305m-.564 5.974c-1.05.402-1.349 1.7-.571 2.478.862.863 2.369.365 2.532-.837a1.496 1.496 0 0 0-.827-1.561c-.195-.099-.28-.116-.608-.125-.253-.007-.431.008-.526.045" /></svg>