<svg width="24" height="24" viewBox="0 0 24 24" fill="none" xmlns="http://www.w3.org/2000/svg">
<path d="M18 19V5C18 4.44772 18.4477 4 19 4C19.5523 4 20 4.44772 20 5V19C20 19.5523 19.5523 20 19 20C18.4477 20 18 19.5523 18 19ZM4 6.48145C4 4.43258 6.32687 3.32386 7.95703 4.45215L15.9307 9.97168L16.0605 10.0674C17.3131 11.0548 17.3131 12.9452 16.0605 13.9326L15.9307 14.0283L7.95703 19.5479C6.32687 20.6761 4 19.5674 4 17.5186V6.48145ZM6 17.5186C6 17.8694 6.44447 18.1619 6.81836 17.9033L14.792 12.3838L14.8828 12.3037C15.0385 12.1282 15.0385 11.8718 14.8828 11.6963L14.792 11.6162L6.81836 6.09668C6.44447 5.83813 6 6.13063 6 6.48145V17.5186Z" />
</svg>
