<svg width="24" height="24" viewBox="0 0 24 24" xmlns="http://www.w3.org/2000/svg">
<path d="M12 3.75C7.44365 3.75 3.75 7.44365 3.75 12C3.75 16.5563 7.44365 20.25 12 20.25C16.5563 20.25 20.25 16.5563 20.25 12C20.25 11.4477 20.6977 11 21.25 11C21.8023 11 22.25 11.4477 22.25 12C22.25 17.6609 17.6609 22.25 12 22.25C6.33908 22.25 1.75 17.6609 1.75 12C1.75 6.33908 6.33908 1.75 12 1.75C14.3695 1.75 16.5538 2.55528 18.2901 3.90646C18.5091 4.07684 18.7209 4.25589 18.9251 4.4431C18.9917 4.50416 19.0575 4.56609 19.1224 4.62888C19.1438 4.64953 19.1641 4.6709 19.1832 4.69292C19.2061 4.71208 19.2284 4.73244 19.25 4.75398C19.6405 5.14451 19.6405 5.77767 19.25 6.1682L16.1732 9.24498C16.6957 10.0349 17 10.9819 17 12C17 14.7614 14.7614 17 12 17C9.23858 17 7 14.7614 7 12C7 9.23858 9.23858 7 12 7C13.0201 7 13.9689 7.30549 14.7598 7.82997L17.086 5.50372L17.0619 5.48485C15.6642 4.39723 13.9091 3.75 12 3.75Z"/>
</svg>