<svg width="24" height="24" viewBox="0 0 24 24" xmlns="http://www.w3.org/2000/svg">
<path d="M12 3.75C7.44365 3.75 3.75 7.44365 3.75 12C3.75 16.5563 7.44365 20.25 12 20.25C16.5563 20.25 20.25 16.5563 20.25 12C20.25 11.4477 20.6977 11 21.25 11C21.8023 11 22.25 11.4477 22.25 12C22.25 17.6609 17.6609 22.25 12 22.25C6.33908 22.25 1.75 17.6609 1.75 12C1.75 6.33908 6.33908 1.75 12 1.75C14.3695 1.75 16.5538 2.55528 18.2901 3.90646C18.5091 4.07684 18.7209 4.25589 18.9251 4.4431C18.9917 4.50416 19.0575 4.56609 19.1224 4.62888C19.1438 4.64953 19.1641 4.6709 19.1832 4.69292C19.2061 4.71208 19.2284 4.73244 19.25 4.75398C19.6405 5.14451 19.6405 5.77767 19.25 6.1682L12.7131 12.705C12.3226 13.0955 11.6895 13.0955 11.2989 12.705C10.9084 12.3145 10.9084 11.6813 11.2989 11.2908L13.2963 9.29346C12.9042 9.10525 12.465 9 12 9C10.3431 9 9 10.3431 9 12C9 13.6569 10.3431 15 12 15C13.6569 15 15 13.6569 15 12C15 11.4477 15.4477 11 16 11C16.5523 11 17 11.4477 17 12C17 14.7614 14.7614 17 12 17C9.23858 17 7 14.7614 7 12C7 9.23858 9.23858 7 12 7C13.019 7 13.9687 7.30577 14.7597 7.83005L17.086 5.50372C17.078 5.49741 17.0699 5.49113 17.0619 5.48485C15.6642 4.39723 13.9091 3.75 12 3.75Z"/>
</svg>
