<svg width="24" height="24" viewBox="0 0 24 24" xmlns="http://www.w3.org/2000/svg">
<path d="M12 4.05742L5 6.46367V11.9119C5 14.0775 5.85119 15.5989 7.1875 16.8641C8.46334 18.0719 10.1527 19.0189 12 20.0184C13.8473 19.0189 15.5367 18.0719 16.8125 16.8641C18.1488 15.5989 19 14.0775 19 11.9119V6.46367L12 4.05742ZM11 14.9998V12.7898C10.1175 12.4039 9.5 11.5247 9.5 10.4998C9.5001 9.11917 10.6193 7.9998 12 7.9998C13.3807 7.9998 14.4999 9.11917 14.5 10.4998C14.5 11.5247 13.8825 12.4039 13 12.7898V14.9998C13 15.5521 12.5523 15.9998 12 15.9998C11.4477 15.9998 11 15.5521 11 14.9998ZM21 11.9119C21 14.7187 19.8511 16.7422 18.1875 18.3172C16.5722 19.8464 14.4421 20.9764 12.4746 22.0379C12.1783 22.1977 11.8217 22.1977 11.5254 22.0379C9.55785 20.9764 7.4278 19.8464 5.8125 18.3172C4.14891 16.7422 3 14.7187 3 11.9119V6.46367C3 5.60973 3.54208 4.84972 4.34961 4.57206L11.3496 2.16581L11.5098 2.11894C11.8853 2.02396 12.2818 2.03911 12.6504 2.16581L19.6504 4.57206L19.7988 4.62968C20.5237 4.94509 21 5.66315 21 6.46367V11.9119Z"/>
</svg>
