<svg width="24" height="24" viewBox="0 0 24 24" xmlns="http://www.w3.org/2000/svg">
<path d="M19 13C19 9.13401 15.866 6 12 6C8.13401 6 5 9.13401 5 13C5 16.866 8.13401 20 12 20C15.866 20 19 16.866 19 13ZM8.29297 9.29297C8.65908 8.92685 9.23809 8.90426 9.63086 9.22461L9.70703 9.29297L12.707 12.293L12.7754 12.3691C13.0957 12.7619 13.0731 13.3409 12.707 13.707C12.3409 14.0731 11.7619 14.0957 11.3691 13.7754L11.293 13.707L8.29297 10.707L8.22461 10.6309C7.90426 10.2381 7.92685 9.65908 8.29297 9.29297ZM14 1C14.5523 1 15 1.44772 15 2C15 2.55228 14.5523 3 14 3H10C9.44772 3 9 2.55228 9 2C9 1.44772 9.44772 1 10 1H14ZM21 13C21 17.9706 16.9706 22 12 22C7.02944 22 3 17.9706 3 13C3 8.02944 7.02944 4 12 4C16.9706 4 21 8.02944 21 13Z"/>
</svg>
