<svg width="20" height="20" viewBox="0 0 20 20" fill="none" xmlns="http://www.w3.org/2000/svg">
<path fill-rule="evenodd" clip-rule="evenodd" d="M3.6672 7.91028C3.45045 8.56753 3.33317 9.26999 3.33317 9.99984C3.33317 13.6817 6.31794 16.6665 9.99984 16.6665C13.6817 16.6665 16.6665 13.6817 16.6665 9.99984C16.6665 7.16989 14.9032 4.75179 12.4154 3.78426L11.975 5.54528C11.6829 6.71361 10.7715 7.62634 9.60354 7.92015L8.26336 8.25729C8.18933 8.27591 8.12705 8.3258 8.09271 8.39397C7.55202 9.46726 6.17233 9.79052 5.21116 9.06911L3.6672 7.91028ZM4.40195 6.37786L6.21163 7.73613C6.34259 7.83442 6.53057 7.79038 6.60424 7.64414C6.8563 7.14377 7.31341 6.77767 7.85675 6.64098L9.19694 6.30384C9.76881 6.15998 10.2151 5.71305 10.3582 5.14097L10.7984 3.3805C10.5365 3.34925 10.2701 3.33317 9.99984 3.33317C7.65335 3.33317 5.59001 4.54545 4.40195 6.37786ZM1.6665 9.99984C1.6665 5.39746 5.39746 1.6665 9.99984 1.6665C14.6022 1.6665 18.3332 5.39746 18.3332 9.99984C18.3332 14.6022 14.6022 18.3332 9.99984 18.3332C5.39746 18.3332 1.6665 14.6022 1.6665 9.99984ZM8.37287 10.4528C8.74479 10.0822 9.25791 9.8891 9.78187 9.92254L10.3179 9.95675C10.8517 9.99082 11.367 10.166 11.811 10.4643L12.8265 11.1467C13.6797 11.7201 13.9743 12.8379 13.5146 13.7573C13.1684 14.4498 12.4606 14.8872 11.6864 14.8872H11.1311C10.1472 14.8872 9.22842 14.3955 8.68267 13.5769L8.14175 12.7655C7.65691 12.0383 7.7537 11.0697 8.37287 10.4528ZM9.67572 11.5858C9.62869 11.5828 9.58263 11.6002 9.54925 11.6334C9.49367 11.6888 9.48498 11.7757 9.5285 11.841L10.0694 12.6524C10.3061 13.0074 10.7044 13.2206 11.1311 13.2206H11.6864C11.8293 13.2206 11.96 13.1398 12.0239 13.012C12.1088 12.8423 12.0544 12.6359 11.8969 12.5301L10.8814 11.8477C10.6823 11.7139 10.4512 11.6353 10.2118 11.62L9.67572 11.5858Z" fill="black"/>
</svg>
