<svg width="20" height="20" viewBox="0 0 20 20" fill="none" xmlns="http://www.w3.org/2000/svg">
<path fill-rule="evenodd" clip-rule="evenodd" d="M15.9641 3.33317C15.3011 3.33317 14.6652 3.59656 14.1964 4.0654L11.8394 6.42243C11.6124 6.64935 11.2754 6.7258 10.9727 6.619L4.8799 4.46858C4.57728 4.36177 4.24022 4.43823 4.0133 4.66515L3.76046 4.91799L8.42486 8.50598C8.61493 8.65219 8.7328 8.8732 8.74834 9.1125C8.76389 9.3518 8.67558 9.58619 8.50602 9.75576L6.83935 11.4224C6.68307 11.5787 6.47111 11.6665 6.2501 11.6665H5.27379C5.05277 11.6665 4.84081 11.7543 4.68453 11.9106L4.00447 12.5906L5.41669 13.1202L5.12409 13.9005L5.41669 13.1202C6.09275 13.3737 6.62618 13.9072 6.87971 14.5832L7.40929 15.9955L8.08935 15.3154C8.24563 15.1591 8.33343 14.9472 8.33343 14.7261V13.7498C8.33343 13.5288 8.42123 13.3169 8.57751 13.1606L10.2442 11.4939C10.4137 11.3243 10.6481 11.236 10.8874 11.2516C11.1267 11.2671 11.3477 11.385 11.4939 11.5751L15.0819 16.2395L15.3348 15.9866C15.5617 15.7597 15.6382 15.4227 15.5314 15.12L13.3809 9.02719C13.2741 8.72457 13.3506 8.3875 13.5775 8.16058L15.9345 5.80356C16.4034 5.33472 16.6668 4.69883 16.6668 4.03579V3.33317H15.9641ZM13.0179 2.88689C13.7993 2.10549 14.8591 1.6665 15.9641 1.6665H17.5001C17.9603 1.6665 18.3334 2.0396 18.3334 2.49984V4.03579C18.3334 5.14086 17.8944 6.20067 17.113 6.98207L15.1274 8.96773L17.103 14.5653C17.4234 15.4732 17.1941 16.4844 16.5133 17.1651L15.5894 18.0891C15.4198 18.2587 15.1854 18.347 14.9461 18.3314C14.7068 18.3159 14.4858 18.198 14.3396 18.0079L10.7516 13.3435L10.0001 14.095V14.7261C10.0001 15.3892 9.7367 16.0251 9.26786 16.4939L7.67269 18.0891C7.47234 18.2894 7.18392 18.3743 6.90701 18.3143C6.6301 18.2543 6.40264 18.0577 6.30316 17.7924L5.31916 15.1684C5.23465 14.9431 5.05684 14.7653 4.83149 14.6808L2.20749 13.6968C1.9422 13.5973 1.74563 13.3698 1.68565 13.0929C1.62567 12.816 1.71049 12.5276 1.91084 12.3272L3.50602 10.7321C3.97486 10.2632 4.61074 9.99984 5.27379 9.99984H5.90492L6.6564 9.24835L1.992 5.66036C1.80193 5.51415 1.68406 5.29314 1.66851 5.05384C1.65297 4.81454 1.74127 4.58015 1.91084 4.41058L2.83478 3.48664C3.51555 2.80587 4.52674 2.57651 5.4346 2.89693L11.0322 4.87255L13.0179 2.88689Z" fill="black"/>
</svg>
