<svg width="20" height="20" viewBox="0 0 20 20" fill="none" xmlns="http://www.w3.org/2000/svg">
<path d="M9.81002 1.78575C9.88629 1.62676 10.1138 1.62676 10.1901 1.78575L12.4253 6.44542C12.456 6.5094 12.5171 6.5536 12.5878 6.56286L17.7334 7.2376C17.909 7.26062 17.9793 7.47586 17.8509 7.59714L14.0866 11.1517C14.0349 11.2005 14.0116 11.272 14.0246 11.3418L14.9696 16.4184C15.0018 16.5916 14.8177 16.7247 14.6621 16.6406L10.1005 14.1778C10.0378 14.144 9.96225 14.144 9.89961 14.1778L5.33798 16.6406C5.18233 16.7247 4.99828 16.5916 5.03052 16.4184L5.97552 11.3418C5.9885 11.272 5.96514 11.2005 5.91345 11.1517L2.14921 7.59714C2.02077 7.47586 2.09107 7.26062 2.26664 7.2376L7.41232 6.56286C7.48298 6.5536 7.54413 6.5094 7.57482 6.44542L9.81002 1.78575Z" stroke="black" stroke-width="1.66667" stroke-linecap="round" stroke-linejoin="round"/>
</svg>
