<svg width="20" height="20" viewBox="0 0 20 20" fill="none" xmlns="http://www.w3.org/2000/svg">
<path fill-rule="evenodd" clip-rule="evenodd" d="M9.99984 3.33317C6.31794 3.33317 3.33317 6.31794 3.33317 9.99984C3.33317 13.6817 6.31794 16.6665 9.99984 16.6665C13.6817 16.6665 16.6665 13.6817 16.6665 9.99984C16.6665 6.31794 13.6817 3.33317 9.99984 3.33317ZM1.6665 9.99984C1.6665 5.39746 5.39746 1.6665 9.99984 1.6665C14.6022 1.6665 18.3332 5.39746 18.3332 9.99984C18.3332 14.6022 14.6022 18.3332 9.99984 18.3332C5.39746 18.3332 1.6665 14.6022 1.6665 9.99984ZM8.33317 5.83317C8.79341 5.83317 9.1665 6.20627 9.1665 6.6665V9.1665C9.1665 9.62674 8.79341 9.99984 8.33317 9.99984C7.87293 9.99984 7.49984 9.62674 7.49984 9.1665V6.6665C7.49984 6.20627 7.87293 5.83317 8.33317 5.83317ZM11.6665 5.83317C12.1267 5.83317 12.4998 6.20627 12.4998 6.6665V9.1665C12.4998 9.62674 12.1267 9.99984 11.6665 9.99984C11.2063 9.99984 10.8332 9.62674 10.8332 9.1665V6.6665C10.8332 6.20627 11.2063 5.83317 11.6665 5.83317ZM6.75448 12.3355C6.96031 11.9238 7.46087 11.757 7.87252 11.9628C9.30458 12.6788 10.6951 12.6788 12.1272 11.9628C12.5388 11.757 13.0394 11.9238 13.2452 12.3355C13.451 12.7471 13.2842 13.2477 12.8725 13.4535C10.9712 14.4042 9.02843 14.4042 7.12716 13.4535C6.71551 13.2477 6.54866 12.7471 6.75448 12.3355Z" fill="black"/>
</svg>
