<svg width="20" height="20" viewBox="0 0 20 20" fill="none" xmlns="http://www.w3.org/2000/svg">
<path fill-rule="evenodd" clip-rule="evenodd" d="M3.04406 7.7121C2.91631 6.71565 3.69259 5.8335 4.6972 5.8335H15.3032C16.3078 5.8335 17.0841 6.71565 16.9564 7.7121L15.8744 16.1514C15.7144 17.399 14.6525 18.3335 13.3947 18.3335H6.60573C5.34793 18.3335 4.28597 17.399 4.12602 16.1514L3.04406 7.7121ZM7.11497 7.50016L4.6972 7.50016L5.77916 15.9395C5.83248 16.3553 6.18646 16.6668 6.60573 16.6668H7.46754L7.11497 7.50016ZM8.78287 7.50016L9.13544 16.6668H10.865L11.2175 7.50016H8.78287ZM12.8854 7.50016L12.5329 16.6668H13.3947C13.814 16.6668 14.1679 16.3553 14.2213 15.9395L15.3032 7.50016H12.8854Z" fill="black"/>
<path fill-rule="evenodd" clip-rule="evenodd" d="M10.5002 3.49984C10.2039 3.27761 9.79646 3.27761 9.50016 3.49984L9.31847 3.63611C8.81089 4.01679 8.1588 4.14848 7.54327 3.99459C7.32966 3.94119 7.10944 4.05379 7.02767 4.25823L6.85971 4.67811C6.60177 5.32297 6.04986 5.80473 5.37607 5.97317C5.15515 6.0284 5.00016 6.2269 5.00016 6.45462V6.6665C5.00016 7.12674 4.62707 7.49984 4.16683 7.49984C3.70659 7.49984 3.3335 7.12674 3.3335 6.6665V6.45462C3.3335 5.46212 4.00897 4.59699 4.97184 4.35627L5.17395 5.16472L4.97184 4.35627C5.12644 4.31762 5.25307 4.20709 5.31225 4.05913L5.48021 3.63924C5.87152 2.66097 6.92532 2.12215 7.9475 2.37769C8.07613 2.40985 8.2124 2.38233 8.31847 2.30278L8.81847 2.96944L8.31847 2.30278L8.50016 2.1665C9.38905 1.49984 10.6113 1.49984 11.5002 2.1665L11.6819 2.30278C11.7879 2.38233 11.9242 2.40985 12.0528 2.37769C13.075 2.12215 14.1288 2.66097 14.5201 3.63924L14.6881 4.05913C14.7473 4.20709 14.8739 4.31762 15.0285 4.35627C15.9914 4.59699 16.6668 5.46212 16.6668 6.45462V6.6665C16.6668 7.12674 16.2937 7.49984 15.8335 7.49984C15.3733 7.49984 15.0002 7.12674 15.0002 6.6665V6.45462C15.0002 6.2269 14.8452 6.0284 14.6243 5.97317C13.9505 5.80473 13.3986 5.32297 13.1406 4.67811L12.9727 4.25823C12.8909 4.05379 12.6707 3.94119 12.4571 3.99459C11.8415 4.14848 11.1894 4.01679 10.6819 3.63611L10.5002 3.49984L11.0002 2.83317L10.5002 3.49984Z" fill="black"/>
</svg>
