<svg width="20" height="20" viewBox="0 0 20 20" fill="none" xmlns="http://www.w3.org/2000/svg">
<path fill-rule="evenodd" clip-rule="evenodd" d="M0.833252 8.33317C0.833252 6.03198 2.69873 4.1665 4.99992 4.1665H14.9999C17.3011 4.1665 19.1666 6.03198 19.1666 8.33317V11.6665C19.1666 13.9677 17.3011 15.8332 14.9999 15.8332H4.99992C2.69873 15.8332 0.833252 13.9677 0.833252 11.6665V8.33317ZM4.99992 5.83317C3.61921 5.83317 2.49992 6.95246 2.49992 8.33317V11.6665C2.49992 13.0472 3.61921 14.1665 4.99992 14.1665H14.9999C16.3806 14.1665 17.4999 13.0472 17.4999 11.6665V8.33317C17.4999 6.95246 16.3806 5.83317 14.9999 5.83317H4.99992ZM6.66659 7.49984C7.12682 7.49984 7.49992 7.87293 7.49992 8.33317V9.1665H8.33325C8.79349 9.1665 9.16658 9.5396 9.16658 9.99984C9.16658 10.4601 8.79349 10.8332 8.33325 10.8332H7.49992V11.6665C7.49992 12.1267 7.12682 12.4998 6.66659 12.4998C6.20635 12.4998 5.83325 12.1267 5.83325 11.6665V10.8332H4.99992C4.53968 10.8332 4.16659 10.4601 4.16659 9.99984C4.16659 9.5396 4.53968 9.1665 4.99992 9.1665H5.83325V8.33317C5.83325 7.87293 6.20635 7.49984 6.66659 7.49984Z" fill="black"/>
<path d="M12.2917 11.6668C12.0615 11.6668 11.875 11.4803 11.875 11.2502C11.875 11.02 12.0615 10.8335 12.2917 10.8335C12.5218 10.8335 12.7083 11.02 12.7083 11.2502C12.7083 11.4803 12.5218 11.6668 12.2917 11.6668Z" fill="black"/>
<path d="M14.7917 9.16683C14.5615 9.16683 14.375 8.98028 14.375 8.75016C14.375 8.52004 14.5615 8.3335 14.7917 8.3335C15.0218 8.3335 15.2083 8.52004 15.2083 8.75016C15.2083 8.98028 15.0218 9.16683 14.7917 9.16683Z" fill="black"/>
<path fill-rule="evenodd" clip-rule="evenodd" d="M12.2917 12.2918C11.7164 12.2918 11.25 11.8255 11.25 11.2502C11.25 10.6749 11.7164 10.2085 12.2917 10.2085C12.867 10.2085 13.3333 10.6749 13.3333 11.2502C13.3333 11.8255 12.867 12.2918 12.2917 12.2918ZM14.7917 9.79183C14.2164 9.79183 13.75 9.32546 13.75 8.75016C13.75 8.17487 14.2164 7.7085 14.7917 7.7085C15.367 7.7085 15.8333 8.17487 15.8333 8.75016C15.8333 9.32546 15.367 9.79183 14.7917 9.79183ZM14.375 8.75016C14.375 8.98028 14.5615 9.16683 14.7917 9.16683C15.0218 9.16683 15.2083 8.98028 15.2083 8.75016C15.2083 8.52004 15.0218 8.3335 14.7917 8.3335C14.5615 8.3335 14.375 8.52004 14.375 8.75016ZM11.875 11.2502C11.875 11.4803 12.0615 11.6668 12.2917 11.6668C12.5218 11.6668 12.7083 11.4803 12.7083 11.2502C12.7083 11.02 12.5218 10.8335 12.2917 10.8335C12.0615 10.8335 11.875 11.02 11.875 11.2502Z" fill="black"/>
</svg>
