<svg width="20" height="20" viewBox="0 0 20 20" fill="none" xmlns="http://www.w3.org/2000/svg">
<path fill-rule="evenodd" clip-rule="evenodd" d="M4.16675 4.16683C4.16675 2.32588 5.65913 0.833496 7.50008 0.833496H12.5001C14.341 0.833496 15.8334 2.32588 15.8334 4.16683V15.8335C15.8334 17.6744 14.341 19.1668 12.5001 19.1668H7.50008C5.65913 19.1668 4.16675 17.6744 4.16675 15.8335V4.16683ZM7.50008 2.50016C6.57961 2.50016 5.83341 3.24635 5.83341 4.16683V15.8335C5.83341 16.754 6.57961 17.5002 7.50008 17.5002H12.5001C13.4206 17.5002 14.1667 16.754 14.1667 15.8335V4.16683C14.1667 3.24635 13.4206 2.50016 12.5001 2.50016H7.50008ZM8.33341 4.16683C8.33341 3.70659 8.70651 3.3335 9.16675 3.3335H10.8334C11.2937 3.3335 11.6667 3.70659 11.6667 4.16683C11.6667 4.62707 11.2937 5.00016 10.8334 5.00016H9.16675C8.70651 5.00016 8.33341 4.62707 8.33341 4.16683Z" fill="black"/>
</svg>
