<svg width="20" height="20" viewBox="0 0 20 20" fill="none" xmlns="http://www.w3.org/2000/svg">
<path fill-rule="evenodd" clip-rule="evenodd" d="M3.33325 4.1665C3.33325 2.78579 4.45254 1.6665 5.83325 1.6665H10.1429C10.8059 1.6665 11.4418 1.9299 11.9107 2.39874L15.9344 6.42243C16.4032 6.89127 16.6666 7.52715 16.6666 8.19019V15.8332C16.6666 17.2139 15.5473 18.3332 14.1666 18.3332H5.83325C4.45254 18.3332 3.33325 17.2139 3.33325 15.8332V4.1665ZM5.83325 3.33317C5.37301 3.33317 4.99992 3.70627 4.99992 4.1665V15.8332C4.99992 16.2934 5.37301 16.6665 5.83325 16.6665H14.1666C14.6268 16.6665 14.9999 16.2934 14.9999 15.8332V8.33317H12.4999C11.1192 8.33317 9.99992 7.21388 9.99992 5.83317V3.33317H5.83325ZM11.6666 4.51168V5.83317C11.6666 6.29341 12.0397 6.6665 12.4999 6.6665H13.8214L11.6666 4.51168ZM6.66659 10.8332C6.66659 10.3729 7.03968 9.99984 7.49992 9.99984H9.99992C10.4602 9.99984 10.8333 10.3729 10.8333 10.8332C10.8333 11.2934 10.4602 11.6665 9.99992 11.6665H7.49992C7.03968 11.6665 6.66659 11.2934 6.66659 10.8332ZM6.66659 14.1665C6.66659 13.7063 7.03968 13.3332 7.49992 13.3332H12.9166C13.3768 13.3332 13.7499 13.7063 13.7499 14.1665C13.7499 14.6267 13.3768 14.9998 12.9166 14.9998H7.49992C7.03968 14.9998 6.66659 14.6267 6.66659 14.1665Z" fill="black"/>
</svg>
