<svg width="20" height="20" viewBox="0 0 20 20" fill="none" xmlns="http://www.w3.org/2000/svg">
<path fill-rule="evenodd" clip-rule="evenodd" d="M13.945 4.24277C12.9132 4.01273 11.6884 4.28149 10.5935 5.39217C10.4369 5.55102 10.2231 5.64045 10 5.64045C9.77696 5.64045 9.56321 5.55102 9.4066 5.39217C8.3116 4.28149 7.08682 4.01273 6.05508 4.24278C5.00263 4.47744 4.07252 5.24756 3.62124 6.37284C2.77484 8.48331 3.54393 12.3666 10.0001 16.1239C16.4562 12.3666 17.2252 8.4833 16.3788 6.37283C15.9275 5.24756 14.9974 4.47744 13.945 4.24277ZM17.9257 5.75245C19.2625 9.0857 17.5141 13.8272 10.4075 17.8104C10.1544 17.9523 9.84573 17.9523 9.59263 17.8104C2.48601 13.8273 0.737544 9.08572 2.07433 5.75246C2.72338 4.13407 4.08565 2.97431 5.69237 2.61606C7.10697 2.30064 8.65285 2.61851 10 3.68794C11.3472 2.61851 12.8931 2.30064 14.3077 2.61605C15.9144 2.9743 17.2767 4.13406 17.9257 5.75245ZM8.75003 7.50016C9.03735 7.50016 9.30441 7.64818 9.4567 7.89183L10.8959 10.1946L11.4167 9.50016C11.5741 9.29032 11.8211 9.16683 12.0834 9.16683H13.3334C13.7936 9.16683 14.1667 9.53992 14.1667 10.0002C14.1667 10.4604 13.7936 10.8335 13.3334 10.8335H12.5L11.5 12.1668C11.3352 12.3866 11.0725 12.5111 10.798 12.4994C10.5235 12.4877 10.2723 12.3415 10.1267 12.1085L8.75003 9.90582L8.41503 10.4418C8.26275 10.6855 7.99569 10.8335 7.70836 10.8335H6.6667C6.20646 10.8335 5.83336 10.4604 5.83336 10.0002C5.83336 9.53992 6.20646 9.16683 6.6667 9.16683H7.24649L8.04336 7.89183C8.19565 7.64818 8.4627 7.50016 8.75003 7.50016Z" fill="black"/>
</svg>
