<svg width="20" height="20" viewBox="0 0 20 20" fill="none" xmlns="http://www.w3.org/2000/svg">
<path d="M16.667 11.6665C16.6668 9.36547 14.8011 7.50049 12.5 7.50049L12.2646 7.50635C10.0735 7.62806 8.33318 9.44454 8.33301 11.6665C8.33301 12.1526 8.41665 12.6178 8.56836 13.0493L8.68652 13.3481C9.33322 14.8128 10.7982 15.8335 12.5 15.8335C14.8012 15.8335 16.667 13.9677 16.667 11.6665ZM18.333 11.6665C18.333 14.8882 15.7217 17.5005 12.5 17.5005C10.1692 17.5005 8.16001 16.1333 7.22559 14.1597C4.13135 14.0164 1.66699 11.4632 1.66699 8.3335C1.66699 5.11184 4.27834 2.50049 7.5 2.50049C9.83078 2.50049 11.8393 3.86763 12.7734 5.84033C15.868 5.98314 18.3328 8.53665 18.333 11.6665ZM3.33301 8.3335C3.33301 10.3665 4.78963 12.0584 6.71582 12.4253C6.68351 12.1768 6.66699 11.9233 6.66699 11.6665C6.66714 8.97307 8.49218 6.70669 10.9736 6.03564C10.227 4.90931 8.95039 4.1665 7.5 4.1665C5.19881 4.1665 3.33301 6.03231 3.33301 8.3335Z" fill="black"/>
</svg>
