<svg width="20" height="20" viewBox="0 0 20 20" fill="none" xmlns="http://www.w3.org/2000/svg">
<path fill-rule="evenodd" clip-rule="evenodd" d="M1.66675 5.83333C1.66675 3.99238 3.15913 2.5 5.00008 2.5H10.8334C12.6744 2.5 14.1667 3.99238 14.1667 5.83333V9.16667H15.4167C17.0276 9.16667 18.3334 10.4725 18.3334 12.0833V14.5833C18.3334 16.1942 17.0276 17.5 15.4167 17.5H4.58341C2.97258 17.5 1.66675 16.1942 1.66675 14.5833V5.83333ZM12.7808 15.8333H4.58341C3.89306 15.8333 3.33341 15.2737 3.33341 14.5833V5.83333C3.33341 4.91286 4.07961 4.16667 5.00008 4.16667H10.8334C11.7539 4.16667 12.5001 4.91286 12.5001 5.83333V14.5833C12.5001 15.0307 12.6008 15.4545 12.7808 15.8333ZM15.4167 15.8333C16.1071 15.8333 16.6667 15.2737 16.6667 14.5833V12.0833C16.6667 11.393 16.1071 10.8333 15.4167 10.8333H14.1667V14.5833C14.1667 15.2737 14.7264 15.8333 15.4167 15.8333ZM5.00008 6.66667C5.00008 6.20643 5.37318 5.83333 5.83341 5.83333H10.0001C10.4603 5.83333 10.8334 6.20643 10.8334 6.66667V10C10.8334 10.4602 10.4603 10.8333 10.0001 10.8333H5.83341C5.37318 10.8333 5.00008 10.4602 5.00008 10V6.66667ZM6.66675 7.5V9.16667H9.16675V7.5H6.66675ZM5.00008 13.3333C5.00008 12.8731 5.37318 12.5 5.83341 12.5H10.0001C10.4603 12.5 10.8334 12.8731 10.8334 13.3333C10.8334 13.7936 10.4603 14.1667 10.0001 14.1667H5.83341C5.37318 14.1667 5.00008 13.7936 5.00008 13.3333Z" fill="black"/>
</svg>
