<svg width="20" height="20" viewBox="0 0 20 20" fill="none" xmlns="http://www.w3.org/2000/svg">
<path fill-rule="evenodd" clip-rule="evenodd" d="M10.8245 1.79542C11.3711 1.7105 11.9307 1.6665 12.5001 1.6665H16.6667C17.5872 1.6665 18.3334 2.4127 18.3334 3.33317V7.49984C18.3334 8.06919 18.2894 8.62883 18.2045 9.17541C17.4833 13.8175 13.8177 17.483 9.17565 18.2043C8.62907 18.2892 8.06943 18.3332 7.50008 18.3332H3.33342C2.41294 18.3332 1.66675 17.587 1.66675 16.6665V12.4998C1.66675 11.9305 1.71074 11.3708 1.79566 10.8243C2.51687 6.18218 6.18242 2.51663 10.8245 1.79542ZM12.8453 3.33317L16.6667 7.15466V3.33317H12.8453ZM16.4843 9.32927L10.6707 3.51559C7.07636 4.24329 4.24353 7.07612 3.51583 10.6704L9.32951 16.4841C12.9238 15.7564 15.7566 12.9236 16.4843 9.32927ZM7.1549 16.6665L3.33341 12.845V16.6665H7.1549ZM12.0477 7.95225C12.3731 8.27769 12.3731 8.80532 12.0477 9.13076L9.131 12.0474C8.80557 12.3729 8.27793 12.3729 7.95249 12.0474C7.62706 11.722 7.62706 11.1944 7.95249 10.8689L10.8692 7.95225C11.1946 7.62681 11.7222 7.62681 12.0477 7.95225Z" fill="black"/>
</svg>
