<svg width="20" height="20" viewBox="0 0 20 20" fill="none" xmlns="http://www.w3.org/2000/svg">
<path fill-rule="evenodd" clip-rule="evenodd" d="M4.16659 2.5C4.62682 2.5 4.99992 2.8731 4.99992 3.33333V8.47631C4.99992 8.69248 5.09811 8.85274 5.43502 9.26211C5.44675 9.27636 5.45887 9.29101 5.47133 9.30609C5.76512 9.66141 6.24992 10.2477 6.24992 11.107V15.4167C6.24992 15.6468 6.43647 15.8333 6.66659 15.8333C6.8967 15.8333 7.08325 15.6468 7.08325 15.4167V11.107C7.08325 10.2477 7.56805 9.66141 7.86184 9.30609C7.8743 9.29101 7.88642 9.27636 7.89815 9.26211C8.23506 8.85274 8.33325 8.69248 8.33325 8.47631V3.33333C8.33325 2.8731 8.70635 2.5 9.16659 2.5C9.62682 2.5 9.99992 2.8731 9.99992 3.33333V8.47631C9.99992 9.33559 9.51512 9.92192 9.22133 10.2772C9.20887 10.2923 9.19675 10.307 9.18502 10.3212C8.84811 10.7306 8.74992 10.8909 8.74992 11.107V15.4167C8.74992 16.5673 7.81718 17.5 6.66659 17.5C5.51599 17.5 4.58325 16.5673 4.58325 15.4167V11.107C4.58325 10.8909 4.48506 10.7306 4.14815 10.3212C4.13642 10.307 4.1243 10.2923 4.11184 10.2772C3.81805 9.92192 3.33325 9.33559 3.33325 8.47631V3.33333C3.33325 2.8731 3.70635 2.5 4.16659 2.5Z" fill="black"/>
<path fill-rule="evenodd" clip-rule="evenodd" d="M6.66659 2.5C7.12682 2.5 7.49992 2.8731 7.49992 3.33333V7.5C7.49992 7.96024 7.12682 8.33333 6.66659 8.33333C6.20635 8.33333 5.83325 7.96024 5.83325 7.5V3.33333C5.83325 2.8731 6.20635 2.5 6.66659 2.5Z" fill="black"/>
<path fill-rule="evenodd" clip-rule="evenodd" d="M14.4329 5.51898C13.668 6.58273 12.8617 8.30671 12.5069 10.8667C12.4505 11.2729 12.7747 11.6667 13.2497 11.6667H13.3674C13.8276 11.6667 14.2007 12.0398 14.2007 12.5V15.4167C14.2007 15.6576 14.3903 15.8333 14.6003 15.8333C14.8103 15.8333 15 15.6576 15 15.4167V4.83284C14.8204 5.01947 14.6286 5.24684 14.4329 5.51898ZM15.1241 2.67466C15.3224 2.58378 15.5709 2.5 15.8333 2.5C16.2935 2.5 16.6666 2.8731 16.6666 3.33333V15.4167C16.6666 16.5564 15.7523 17.5 14.6003 17.5C13.4484 17.5 12.534 16.5564 12.534 15.4167V13.2263C11.4661 12.8993 10.6864 11.8613 10.856 10.6378C11.2442 7.83691 12.141 5.85142 13.0798 4.54594C13.5475 3.8955 14.0303 3.40763 14.472 3.07383C14.6924 2.90731 14.9123 2.77174 15.1241 2.67466Z" fill="black"/>
</svg>
