<svg width="20" height="20" viewBox="0 0 20 20" fill="none" xmlns="http://www.w3.org/2000/svg">
<path fill-rule="evenodd" clip-rule="evenodd" d="M5.59229 2.40525C5.87485 2.04196 6.39841 1.97652 6.7617 2.25907L10.0001 4.77782L13.2385 2.25907C13.6018 1.97652 14.1253 2.04196 14.4079 2.40525C14.6904 2.76854 14.625 3.2921 14.2617 3.57466L12.4289 5.0002H15.0001C16.841 5.0002 18.3334 6.49259 18.3334 8.33353V14.1669C18.3334 16.0078 16.841 17.5002 15.0001 17.5002H5.00008C3.15913 17.5002 1.66675 16.0078 1.66675 14.1669V8.33353C1.66675 6.49259 3.15913 5.0002 5.00008 5.0002H7.5713L5.73846 3.57466C5.37517 3.2921 5.30973 2.76854 5.59229 2.40525ZM5.00008 6.66687C4.07961 6.66687 3.33341 7.41306 3.33341 8.33353V14.1669C3.33341 15.0873 4.07961 15.8335 5.00008 15.8335H15.0001C15.9206 15.8335 16.6667 15.0873 16.6667 14.1669V8.33353C16.6667 7.41306 15.9206 6.66687 15.0001 6.66687H5.00008Z" fill="black"/>
</svg>
