<svg width="20" height="20" viewBox="0 0 20 20" fill="none" xmlns="http://www.w3.org/2000/svg">
<path fill-rule="evenodd" clip-rule="evenodd" d="M8.2932 3.15476L8.29286 3.15372L8.29235 3.15215C8.2927 3.15323 8.29285 3.15369 8.2932 3.15476C8.29324 3.15489 8.29315 3.15463 8.2932 3.15476ZM11.7077 3.15137L11.7059 3.15659C11.7035 3.16362 11.6986 3.17706 11.6913 3.19599C11.6766 3.234 11.6523 3.29316 11.6176 3.36633C11.5472 3.51476 11.4394 3.70926 11.2905 3.89945C10.9931 4.27919 10.5859 4.58309 9.99991 4.58309C9.4139 4.58309 9.00669 4.27919 8.70935 3.89945C8.56043 3.70926 8.4526 3.51476 8.38219 3.36633C8.34748 3.29316 8.32319 3.234 8.30851 3.19599C8.3012 3.17706 8.29637 3.16362 8.2939 3.15659L8.29235 3.15215C8.22003 2.93064 8.05798 2.74865 7.84584 2.65185C7.63225 2.55439 7.38744 2.55155 7.17164 2.64404L2.74787 4.53994C1.55278 5.05212 0.949794 6.39487 1.36096 7.62837L1.54916 8.19297C1.92857 9.33122 3.03888 10.0031 4.16658 9.89123V14.1664C4.16658 16.0074 5.65896 17.4998 7.49991 17.4998H12.4999C14.3409 17.4998 15.8332 16.0074 15.8332 14.1664V9.89123C16.9609 10.0031 18.0712 9.33122 18.4507 8.19297L18.6389 7.62837C19.05 6.39488 18.447 5.05213 17.252 4.53994L12.8282 2.64404C12.6124 2.55155 12.3676 2.55439 12.154 2.65185C11.9418 2.74865 11.78 2.92985 11.7077 3.15137ZM11.7077 3.15137C11.7077 3.15148 11.7079 3.15076 11.7077 3.15137L11.707 3.15372L11.7066 3.15476M11.7077 3.15137C11.7077 3.15148 11.7079 3.15076 11.7077 3.15137ZM7.09616 4.48967L3.4044 6.07185C3.00604 6.24258 2.80504 6.69016 2.9421 7.10133L3.1303 7.66593C3.28521 8.13065 3.80562 8.36216 4.25451 8.16603L4.66627 7.98613C4.92391 7.87356 5.22094 7.8985 5.45621 8.05245C5.69147 8.2064 5.83324 8.4686 5.83324 8.74976V14.1664C5.83324 15.0869 6.57944 15.8331 7.49991 15.8331H12.4999C13.4204 15.8331 14.1666 15.0869 14.1666 14.1664V8.74976C14.1666 8.4686 14.3084 8.2064 14.5436 8.05245C14.7789 7.8985 15.0759 7.87356 15.3336 7.98613L15.7453 8.16603C16.1942 8.36216 16.7146 8.13065 16.8695 7.66593L17.0577 7.10133C17.1948 6.69016 16.9938 6.24258 16.5954 6.07185L12.9037 4.48967C12.8196 4.62891 12.7198 4.77744 12.6027 4.92697C12.1145 5.55044 11.2717 6.24976 9.99991 6.24976C8.72809 6.24976 7.8853 5.55044 7.3971 4.92697C7.28002 4.77744 7.18023 4.62891 7.09616 4.48967Z" fill="black"/>
</svg>
