<svg width="20" height="20" viewBox="0 0 20 20" fill="none" xmlns="http://www.w3.org/2000/svg">
<path d="M10 1.66699C14.6024 1.66699 18.333 5.39763 18.333 10C18.333 14.6024 14.6024 18.333 10 18.333C5.39763 18.333 1.66699 14.6024 1.66699 10C1.66699 5.39763 5.39763 1.66699 10 1.66699ZM7.45801 10.833C7.29812 12.4424 6.67864 13.9163 5.73535 15.124C6.69013 15.9195 7.87087 16.4507 9.16699 16.6123V10.833H7.45801ZM10.833 16.6123C12.1289 16.4507 13.309 15.9193 14.2637 15.124C13.3206 13.9164 12.7019 12.4422 12.542 10.833H10.833V16.6123ZM3.38672 10.833C3.52751 11.9622 3.95032 13.0029 4.58301 13.8838C5.21613 13.0027 5.63959 11.9626 5.78027 10.833H3.38672ZM14.2197 10.833C14.3604 11.9624 14.7831 13.0027 15.416 13.8838C16.0489 13.0028 16.4725 11.9624 16.6133 10.833H14.2197ZM15.416 6.11523C14.7828 6.99641 14.3604 8.03734 14.2197 9.16699H16.6133C16.4724 8.03732 16.0491 6.99636 15.416 6.11523ZM10.833 9.16699H12.542C12.7019 7.55753 13.3203 6.08278 14.2637 4.875C13.3091 4.07995 12.1287 3.54827 10.833 3.38672V9.16699ZM9.16699 3.38672C7.87104 3.5483 6.69007 4.07968 5.73535 4.875C6.67891 6.08287 7.29809 7.55732 7.45801 9.16699H9.16699V3.38672ZM4.58301 6.11523C3.95006 6.99626 3.52754 8.03752 3.38672 9.16699H5.78027C5.63955 8.03714 5.21639 6.99651 4.58301 6.11523Z" fill="#0F1419"/>
</svg>
