<svg width="20" height="20" viewBox="0 0 20 20" fill="none" xmlns="http://www.w3.org/2000/svg">
<path d="M10 1.66699C11.035 1.66699 12.0277 1.8559 12.9443 2.20215L13.207 2.30664C14.5066 2.84894 15.6389 3.71038 16.5059 4.79199L16.7148 5.06348C17.7321 6.44512 18.333 8.15342 18.333 10L18.3242 10.3887C18.2577 11.8349 17.8227 13.1862 17.1104 14.3486L16.9639 14.5791C15.9333 16.1435 14.3887 17.3405 12.5684 17.9297L12.2012 18.0391C11.4991 18.2309 10.7607 18.333 10 18.333C9.33456 18.333 8.68631 18.2554 8.06445 18.1074L7.79883 18.0391C5.94286 17.5319 4.34689 16.401 3.24902 14.8867L3.03613 14.5791C2.28726 13.4422 1.80868 12.1099 1.69336 10.6768L1.67578 10.3887C1.66986 10.2598 1.66699 10.1302 1.66699 10C1.66699 8.03043 2.35096 6.21839 3.49414 4.79199L3.67188 4.57812C4.57377 3.52638 5.73411 2.70143 7.05566 2.20215L7.40234 2.08008C8.22073 1.8118 9.09414 1.66699 10 1.66699ZM11.4697 4.86914C10.5935 5.50575 9.40649 5.50575 8.53027 4.86914L7.2373 3.93066C6.41641 4.30501 5.68354 4.84099 5.08105 5.49902L5.5752 7.0166L5.62891 7.21094C5.86135 8.18604 5.48847 9.21559 4.66699 9.8125L3.375 10.75C3.47727 11.6647 3.76422 12.5229 4.19824 13.2871H5.7959C6.87883 13.2872 7.8382 13.9847 8.17285 15.0146L8.66699 16.5332C9.09716 16.6204 9.54282 16.667 10 16.667C10.4569 16.667 10.9022 16.6203 11.332 16.5332L11.8271 15.0146C12.1618 13.9847 13.1212 13.2872 14.2041 13.2871H15.8018C16.2358 12.523 16.5217 11.6646 16.624 10.75L15.333 9.8125C14.4569 9.17587 14.0901 8.04661 14.4248 7.0166L14.918 5.49902C14.3154 4.841 13.5827 4.30493 12.7617 3.93066L11.4697 4.86914ZM5.54004 14.9531C5.88506 15.264 6.26273 15.5385 6.66699 15.7725L6.58789 15.5293C6.47632 15.1861 6.15674 14.9533 5.7959 14.9531H5.54004ZM14.2041 14.9531C13.8433 14.9533 13.5237 15.1861 13.4121 15.5293L13.332 15.7725C13.7366 15.5384 14.1147 15.2642 14.46 14.9531H14.2041ZM8.53027 7.53711C9.40647 6.90054 10.5935 6.90054 11.4697 7.53711L11.8877 7.8418C12.7639 8.47841 13.1306 9.60668 12.7959 10.6367L12.6357 11.1289C12.3009 12.1586 11.3416 12.8554 10.2588 12.8555H9.74121C8.65844 12.8554 7.69909 12.1586 7.36426 11.1289L7.2041 10.6367C6.86942 9.60668 7.23612 8.47841 8.1123 7.8418L8.53027 7.53711ZM10.4902 8.88574C10.1982 8.67354 9.80184 8.67354 9.50977 8.88574L9.0918 9.18945C8.79985 9.40156 8.67775 9.77786 8.78906 10.1211L8.94922 10.6133C9.06076 10.9566 9.38028 11.1894 9.74121 11.1895H10.2588C10.6197 11.1894 10.9392 10.9566 11.0508 10.6133L11.2109 10.1211C11.3222 9.77786 11.2001 9.40156 10.9082 9.18945L10.4902 8.88574ZM3.90918 7.28613C3.72097 7.70784 3.57522 8.15257 3.47754 8.61523L3.68652 8.46387L3.78809 8.37695C3.97463 8.18938 4.06107 7.92351 4.02051 7.66211L3.98926 7.53223L3.90918 7.28613ZM16.0107 7.53223C15.8992 7.87558 16.0214 8.25167 16.3135 8.46387L16.5215 8.61523C16.4238 8.15251 16.2781 7.70789 16.0898 7.28613L16.0107 7.53223ZM10 3.33301C9.76403 3.33301 9.53114 3.34628 9.30176 3.37012L9.50977 3.52148L9.62402 3.59082C9.8994 3.73013 10.2346 3.70718 10.4902 3.52148L10.6973 3.37012C10.4682 3.34634 10.2356 3.33301 10 3.33301Z" fill="black"/>
</svg>
