<svg width="20" height="20" viewBox="0 0 20 20" fill="none" xmlns="http://www.w3.org/2000/svg">
<path d="M4.16821 4.1665V14.1968H7.21021C7.60164 14.1969 7.98053 14.335 8.28052 14.5864L10.0002 16.0278L11.7502 14.5796L11.8655 14.4927C12.1431 14.3007 12.4739 14.1968 12.8137 14.1968H15.8352V4.1665H4.16821ZM12.5002 10.0005L12.5852 10.0044C13.0054 10.047 13.3333 10.402 13.3333 10.8335C13.3333 11.265 13.0054 11.6199 12.5852 11.6626L12.5002 11.6665H7.50024C7.04001 11.6665 6.66626 11.2937 6.66626 10.8335C6.66626 10.3733 7.04001 10.0005 7.50024 10.0005H12.5002ZM12.5002 6.6665L12.5852 6.67139C13.0054 6.71406 13.3333 7.06901 13.3333 7.50049C13.3331 7.93184 13.0053 8.28696 12.5852 8.32959L12.5002 8.3335H7.50024C7.04012 8.3335 6.66644 7.96058 6.66626 7.50049C6.66626 7.04025 7.04001 6.6665 7.50024 6.6665H12.5002ZM17.5022 14.1968C17.5021 15.0595 16.8463 15.7694 16.0061 15.855L15.8352 15.8638H12.8137L10.5295 17.7554C10.2198 18.0117 9.77129 18.0098 9.46313 17.7515L7.21021 15.8638H4.16821C3.30528 15.8636 2.59517 15.2072 2.51001 14.3667L2.5022 14.1968V4.1665C2.50238 3.2463 3.248 2.50066 4.16821 2.50049H15.8352L16.0051 2.5083C16.8457 2.5934 17.502 3.30353 17.5022 4.1665V14.1968Z" fill="black"/>
</svg>
