<svg width="20" height="20" viewBox="0 0 20 20" fill="none" xmlns="http://www.w3.org/2000/svg">
<path fill-rule="evenodd" clip-rule="evenodd" d="M15.8314 4.73992C15.8314 4.1817 15.2933 3.78133 14.7586 3.94173L9.75859 5.44173C9.4061 5.54748 9.16471 5.87191 9.16471 6.23992V15.4165C9.16471 17.1632 7.52361 18.3332 5.83138 18.3332C4.13915 18.3332 2.49805 17.1632 2.49805 15.4165C2.49805 13.6699 4.13915 12.4999 5.83138 12.4999C6.41472 12.4999 6.99199 12.6389 7.49805 12.8927V6.23992C7.49805 5.1359 8.22222 4.16259 9.27968 3.84535L14.2797 2.34535C15.8837 1.86415 17.498 3.06526 17.498 4.73992V12.9165C17.498 14.6632 15.8569 15.8332 14.1647 15.8332C12.4725 15.8332 10.8314 14.6632 10.8314 12.9165C10.8314 11.1699 12.4725 9.99987 14.1647 9.99987C14.7481 9.99987 15.3253 10.1389 15.8314 10.3927V4.73992ZM15.8314 12.9165C15.8314 12.362 15.2339 11.6665 14.1647 11.6665C13.0955 11.6665 12.498 12.362 12.498 12.9165C12.498 13.4711 13.0955 14.1665 14.1647 14.1665C15.2339 14.1665 15.8314 13.4711 15.8314 12.9165ZM7.49805 15.4165C7.49805 14.862 6.90057 14.1665 5.83138 14.1665C4.76219 14.1665 4.16471 14.862 4.16471 15.4165C4.16471 15.9711 4.76219 16.6665 5.83138 16.6665C6.90057 16.6665 7.49805 15.9711 7.49805 15.4165Z" fill="black"/>
</svg>
