<svg width="20" height="20" viewBox="0 0 20 20" fill="none" xmlns="http://www.w3.org/2000/svg">
<path d="M13.333 15.833C13.3328 15.3729 12.9601 15 12.5 15H7.5C7.03987 15 6.66717 15.3729 6.66699 15.833C6.66699 16.2932 7.03976 16.667 7.5 16.667H12.5C12.9602 16.667 13.333 16.2932 13.333 15.833ZM14.167 4.16699C14.167 3.70676 13.7932 3.33301 13.333 3.33301H6.66699C6.20676 3.33301 5.83301 3.70675 5.83301 4.16699V6.66699C5.83318 8.96803 7.69892 10.833 10 10.833C12.3011 10.833 14.1668 8.96803 14.167 6.66699V4.16699ZM15.833 6.66699C15.833 6.87954 15.82 7.08923 15.7979 7.2959C16.3153 7.01304 16.667 6.46426 16.667 5.83301C16.6668 5.37292 16.2931 5 15.833 5V6.66699ZM3.33301 5.83301C3.33301 6.46395 3.68416 7.01292 4.20117 7.2959C4.17901 7.08927 4.167 6.87951 4.16699 6.66699V5C3.70686 5 3.33318 5.37292 3.33301 5.83301ZM18.333 5.83301C18.333 7.58084 16.9879 9.01276 15.2764 9.15332C14.4565 10.8898 12.8063 12.1554 10.8369 12.4385V13.333H12.5C13.8806 13.333 14.9998 14.4524 15 15.833C15 17.2137 13.8807 18.333 12.5 18.333H7.5C6.11929 18.333 5 17.2137 5 15.833C5.00018 14.4524 6.1194 13.333 7.5 13.333H9.16992V12.4395C7.19741 12.1583 5.54336 10.892 4.72266 9.15332C3.01155 9.0123 1.66699 7.58051 1.66699 5.83301C1.66717 4.45245 2.78639 3.33301 4.16699 3.33301H4.3125C4.6561 2.36275 5.57901 1.66699 6.66699 1.66699H13.333C14.421 1.66699 15.3439 2.36275 15.6875 3.33301H15.833C17.2136 3.33301 18.3328 4.45245 18.333 5.83301Z" fill="black"/>
</svg>
