<svg width="20" height="20" viewBox="0 0 20 20" fill="none" xmlns="http://www.w3.org/2000/svg">
<path fill-rule="evenodd" clip-rule="evenodd" d="M3.33325 4.99984C3.33325 3.15889 4.82564 1.6665 6.66659 1.6665H10.1429C10.8059 1.6665 11.4418 1.9299 11.9107 2.39874L15.9344 6.42243C16.4032 6.89127 16.6666 7.52715 16.6666 8.19019V14.9998C16.6666 16.8408 15.1742 18.3332 13.3333 18.3332H6.66659C4.82564 18.3332 3.33325 16.8408 3.33325 14.9998V4.99984ZM6.66659 3.33317C5.74611 3.33317 4.99992 4.07936 4.99992 4.99984V14.9998C4.99992 15.9203 5.74611 16.6665 6.66659 16.6665H13.3333C14.2537 16.6665 14.9999 15.9203 14.9999 14.9998V8.33317H12.4999C11.1192 8.33317 9.99992 7.21388 9.99992 5.83317V3.33317H6.66659ZM11.6666 4.51168V5.83317C11.6666 6.29341 12.0397 6.6665 12.4999 6.6665H13.8214L11.6666 4.51168ZM9.99992 9.99984C10.4602 9.99984 10.8333 10.3729 10.8333 10.8332V14.5832C10.8333 15.0434 10.4602 15.4165 9.99992 15.4165C9.53968 15.4165 9.16659 15.0434 9.16659 14.5832V10.8332C9.16659 10.3729 9.53968 9.99984 9.99992 9.99984ZM12.9166 11.6665C13.3768 11.6665 13.7499 12.0396 13.7499 12.4998V14.5832C13.7499 15.0434 13.3768 15.4165 12.9166 15.4165C12.4563 15.4165 12.0833 15.0434 12.0833 14.5832V12.4998C12.0833 12.0396 12.4563 11.6665 12.9166 11.6665ZM7.08325 12.4998C7.54349 12.4998 7.91659 12.8729 7.91659 13.3332V14.5832C7.91659 15.0434 7.54349 15.4165 7.08325 15.4165C6.62301 15.4165 6.24992 15.0434 6.24992 14.5832V13.3332C6.24992 12.8729 6.62301 12.4998 7.08325 12.4998Z" fill="black"/>
</svg>
