<svg width="24" height="24" xmlns="http://www.w3.org/2000/svg"><path d="M15.695 6.057a1.04 1.04 0 0 0-.567.459c-.091.156-.108.23-.108.484 0 .256.016.328.111.489.061.103.173.236.25.294.269.206.335.213 1.819.215L18.58 8l-2.48 2.484c-2.697 2.702-2.667 2.676-3.1 2.675-.374-.001-.507-.092-1.34-.915-.418-.413-.872-.826-1.009-.918-.97-.652-2.327-.652-3.302-.001-.307.204-5.069 4.938-5.214 5.183-.273.46-.103 1.079.373 1.359.165.097.234.113.492.112.212 0 .341-.022.44-.074.077-.04 1.229-1.16 2.56-2.487 2.612-2.606 2.577-2.576 3-2.576.374 0 .505.09 1.359.932.43.423.889.84 1.021.926.945.619 2.287.62 3.24.002.155-.101 1.149-1.062 2.808-2.716l2.568-2.56.012 1.44.012 1.44.121.197a.998.998 0 0 0 1.718 0l.121-.197V6.7l-.108-.184a1.02 1.02 0 0 0-.582-.461c-.259-.078-5.346-.076-5.595.002" /></svg>