<svg width="24" height="24" xmlns="http://www.w3.org/2000/svg"><path d="M2.695 4.057 C 2.466 4.129,2.256 4.299,2.128 4.516 L 2.020 4.700 2.009 10.531 C 1.999 16.299,2.000 16.367,2.082 16.770 C 2.357 18.118,3.248 19.194,4.512 19.704 C 4.700 19.779,5.028 19.877,5.243 19.921 C 5.624 19.998,5.804 20.000,13.406 19.998 C 19.796 19.997,21.207 19.987,21.330 19.943 C 21.551 19.864,21.744 19.702,21.869 19.489 C 21.964 19.328,21.980 19.256,21.980 19.000 C 21.980 18.746,21.963 18.672,21.872 18.516 C 21.740 18.293,21.533 18.128,21.290 18.055 C 21.138 18.009,19.818 18.000,13.422 18.000 C 5.073 18.000,5.538 18.012,5.088 17.784 C 4.675 17.575,4.243 17.072,4.090 16.623 C 4.025 16.435,4.019 15.983,4.000 10.560 L 3.980 4.700 3.872 4.516 C 3.628 4.101,3.150 3.915,2.695 4.057 M14.695 6.057 C 14.466 6.129,14.256 6.299,14.128 6.516 C 14.037 6.672,14.020 6.746,14.020 7.000 C 14.020 7.256,14.036 7.328,14.131 7.489 C 14.192 7.592,14.304 7.725,14.381 7.783 C 14.635 7.977,14.753 7.996,15.700 7.998 L 16.580 8.000 14.879 9.700 C 13.191 11.387,13.177 11.400,13.014 11.400 C 12.874 11.400,12.810 11.367,12.578 11.177 C 12.078 10.767,11.623 10.601,11.000 10.601 C 10.569 10.601,10.225 10.682,9.864 10.869 C 9.611 10.999,9.396 11.198,7.907 12.678 C 6.981 13.597,6.186 14.420,6.127 14.520 C 6.037 14.672,6.020 14.747,6.020 15.000 C 6.020 15.257,6.036 15.327,6.133 15.492 C 6.263 15.714,6.502 15.901,6.736 15.965 C 6.939 16.019,7.267 15.989,7.445 15.899 C 7.519 15.862,8.310 15.104,9.202 14.216 C 10.812 12.611,10.824 12.600,10.988 12.600 C 11.129 12.600,11.189 12.630,11.387 12.800 C 11.866 13.210,12.376 13.400,13.000 13.400 C 13.441 13.400,13.762 13.324,14.140 13.129 C 14.389 13.001,14.616 12.790,16.207 11.207 L 17.995 9.429 18.007 10.368 L 18.020 11.307 18.141 11.503 C 18.543 12.156,19.457 12.156,19.859 11.503 L 19.980 11.306 19.980 9.003 L 19.980 6.700 19.872 6.516 C 19.740 6.293,19.533 6.128,19.290 6.055 C 19.033 5.978,14.943 5.979,14.695 6.057"></path></svg>