<svg width="749" height="690" viewBox="0 0 749 690" fill="none" xmlns="http://www.w3.org/2000/svg">
  <!-- Bird Icon -->
  <g transform="translate(74.5, 45) scale(25)">
    <path d="M23.643 4.937c-.835.37-1.732.62-2.675.733.962-.576 1.7-1.49 2.048-2.578-.9.534-1.897.922-2.958 1.13-.85-.904-2.06-1.47-3.4-1.47-2.572 0-4.658 2.086-4.658 4.66 0 .364.042.718.12 1.06-3.873-.195-7.304-2.05-9.602-4.868-.4.69-.63 1.49-.63 2.342 0 1.616.823 3.043 2.072 3.878-.764-.025-1.482-.234-2.11-.583v.06c0 2.257 1.605 4.14 3.737 4.568-.392.106-.803.162-1.227.162-.3 0-.593-.028-.877-.082.593 1.85 2.313 3.198 4.352 3.234-1.595 1.25-3.604 1.995-5.786 1.995-.376 0-.747-.022-1.112-.065 2.062 1.323 4.51 2.093 7.14 2.093 8.57 0 13.255-7.098 13.255-13.254 0-.2-.005-.402-.014-.602.91-.658 1.7-1.477 2.323-2.41z" fill="black"/>
  </g>

  <!-- Bug Icon (smaller, hanging from bird's beak) -->
  <g transform="translate(500, 240) scale(0.7)">
    <path d="M195.895 443.513L135.804 419.575C135.331 419.123 134.846 418.684 134.356 418.249H193.483C197.082 418.249 200 415.331 200 411.732C200 408.133 197.082 405.215 193.483 405.215H126.857L154.58 394.171C157.059 393.184 158.686 390.786 158.686 388.117V339.759C158.686 336.159 155.768 333.241 152.168 333.241C148.569 333.241 145.651 336.159 145.651 339.759V383.698L130.075 389.903C130.11 389.311 130.132 388.717 130.132 388.118C130.132 371.503 116.615 357.986 100 357.986C83.3855 357.986 69.8684 371.503 69.8684 388.118C69.8684 388.717 69.891 389.312 69.9258 389.903L54.3496 383.698V339.759C54.3496 336.159 51.4316 333.241 47.8324 333.241C44.2332 333.241 41.3152 336.159 41.3152 339.759V388.118C41.3152 390.786 42.9418 393.185 45.4207 394.172L73.1434 405.216H6.51719C2.91797 405.216 0 408.134 0 411.733C0 415.332 2.91797 418.25 6.51719 418.25H65.6438C65.1535 418.684 64.6691 419.124 64.1957 419.576L4.10508 443.513C1.62617 444.5 0 446.898 0 449.567V489.68C0 493.279 2.91797 496.197 6.51719 496.197C10.1164 496.197 13.0344 493.279 13.0344 489.68V453.986L51.4887 438.668C49.8105 443.066 48.7145 447.747 48.2938 452.62L28.9191 460.338C26.4398 461.325 24.8137 463.724 24.8137 466.393V522.241C24.8137 525.841 27.7316 528.759 31.3309 528.759C34.9301 528.759 37.848 525.841 37.848 522.241V470.812L48.9285 466.398C53.3168 490.605 74.5473 509.021 100 509.021C125.453 509.021 146.683 490.605 151.071 466.398L162.151 470.812V522.242C162.151 525.841 165.069 528.759 168.668 528.759C172.268 528.759 175.186 525.841 175.186 522.242V466.393C175.186 463.724 173.559 461.326 171.08 460.338L151.705 452.62C151.285 447.748 150.189 443.066 148.511 438.668L186.965 453.986V489.679C186.965 493.279 189.883 496.196 193.482 496.196C197.081 496.196 199.999 493.279 199.999 489.679V449.567C200 446.898 198.374 444.5 195.895 443.513Z" fill="black"/>
    <rect x="95" y="65" width="12" height="298" fill="black"/>
  </g>

  <!-- Filter (used if shadows are needed) -->
  <defs>
    <filter id="filter0_d_4_3" x="65.0358" y="64.6875" width="680.252" height="620.625" filterUnits="userSpaceOnUse" color-interpolation-filters="sRGB">
      <feFlood flood-opacity="0" result="BackgroundImageFix"/>
      <feColorMatrix in="SourceAlpha" type="matrix" values="0 0 0 0 0 0 0 0 0 0 0 0 0 0 0 0 0 0 127 0" result="hardAlpha"/>
      <feOffset dy="30"/>
      <feGaussianBlur stdDeviation="15"/>
      <feComposite in2="hardAlpha" operator="out"/>
      <feColorMatrix type="matrix" values="0 0 0 0 0 0 0 0 0 0 0 0 0 0 0 0 0 0 0.06 0"/>
      <feBlend mode="normal" in2="BackgroundImageFix" result="effect1_dropShadow_4_3"/>
      <feBlend mode="normal" in="SourceGraphic" in2="effect1_dropShadow_4_3" result="shape"/>
    </filter>
  </defs>
</svg>