<svg width="24" height="24" viewBox="0 0 24 24" xmlns="http://www.w3.org/2000/svg">
<path d="M19.486 6H17.649C17.868 5.544 18 5.039 18 4.5C18 2.57 16.43 1 14.5 1C13.52 1 12.636 1.407 12 2.058C11.364 1.407 10.48 1 9.49996 1C7.56996 1 5.99996 2.57 5.99996 4.5C5.99996 5.039 6.13296 5.544 6.35096 6H4.48596C3.10796 6 1.98596 7.121 1.98596 8.5V10.5C1.98596 11.316 2.37896 12.042 2.98596 12.499V18.5C2.98596 19.879 4.10796 21 5.48596 21H18.486C19.864 21 20.986 19.879 20.986 18.5V12.499C21.593 12.042 21.986 11.316 21.986 10.5V8.5C21.986 7.121 20.864 6 19.486 6ZM13 4.5C13 3.673 13.673 3 14.5 3C15.327 3 16 3.673 16 4.5C16 5.327 15.327 6 14.5 6H13V4.5ZM9.49996 3C10.327 3 11 3.673 11 4.5V6H9.49996C8.67296 6 7.99996 5.327 7.99996 4.5C7.99996 3.673 8.67296 3 9.49996 3ZM18.986 18.5C18.986 18.775 18.762 19 18.486 19H5.48596C5.20996 19 4.98596 18.775 4.98596 18.5V13H18.986V18.5ZM19.986 10.5C19.986 10.775 19.762 11 19.486 11H4.48596C4.20996 11 3.98596 10.775 3.98596 10.5V8.5C3.98596 8.225 4.20996 8 4.48596 8H19.486C19.762 8 19.986 8.225 19.986 8.5V10.5Z"/>
</svg>