<svg height="18" viewBox="0 0 18 18" width="18" xmlns="http://www.w3.org/2000/svg"><path d="m8.37006 11.33 1.2525.825 1.91994-2.8875-2.9925-1.875 3.1518-4.58387c.2943-.04698.5931-.06593.8926-.05612.7242.03425 1.426.26164 2.0327.6586.6066.39696 1.096.94902 1.4173 1.5989.3475.8027.4932 1.67821.4246 2.55017s-.3496 1.71388-.8183 2.45232c-1.0133 1.86-3.0008 3.84-6.28426 5.7525l-.375.225-.375-.225c-3.2865-1.9125-5.27175-3.8925-6.2865-5.7525-.46741-.73913-.7469-1.58141-.81409-2.45336-.06719-.87194.07995-1.74709.42859-2.54913.32133-.64988.81071-1.20194 1.41736-1.5989s1.30847-.62435 2.03264-.6586c.6731-.02185 1.34302.10148 1.96421.36161.29521.12362.57613.27675.83869.45656l-1.76228 4.27182 3.0075 1.875z"/></svg>