<svg height="18" viewBox="0 0 18 18" width="18" xmlns="http://www.w3.org/2000/svg"><path d="m16.0444 4.51001c-.3213-.64988-.8107-1.20194-1.4173-1.5989-.6067-.39696-1.3085-.62435-2.0327-.6586-.6731-.02205-1.3431.10119-1.9643.36133s-1.17909.65106-1.63566 1.14617c-.45669-.49495-1.0146-.88577-1.63579-1.14589-.62119-.26013-1.29111-.38346-1.96421-.36161-.72417.03425-1.42599.26164-2.03264.6586s-1.09603.94902-1.41736 1.5989c-.34864.80204-.49578 1.67719-.42859 2.54913.06719.87195.34668 1.71423.81409 2.45337 1.01475 1.85999 3 3.83999 6.2865 5.75249l.375.225.375-.225c3.28346-1.9125 5.27096-3.8925 6.28426-5.75249.4687-.73845.7497-1.58037.8183-2.45233s-.0771-1.74747-.4246-2.55017zm-1.7025 4.2825c-.807 1.47749-2.4435 3.20249-5.34746 4.95749-2.9025-1.755-4.53975-3.48-5.34525-4.95749-.35071-.52733-.56684-1.13259-.62947-1.76279-.06263-.63021.03015-1.26616.27022-1.85221.20333-.41081.51242-.76006.89547-1.01183.38306-.25177.82626-.39696 1.28403-.42067.49451-.00599.98402.09945 1.43221.30849.44819.20903.84357.5163 1.15679.89901l-1.623 2.3925 3.009 1.875-1.071 1.61249 1.24875.825 1.92221-2.88749-2.99096-1.875 1.05-1.545c.31205-.49098.74276-.89541 1.25246-1.17593s1.0818-.42809 1.6635-.42907c.4581.02329.9017.1683 1.2851.4201.3833.2518.6926.60127.8959 1.0124.2401.5861.3328 1.22209.27 1.85231s-.2791 1.23545-.63 1.76269z"/></svg>