<svg width="38" height="24" viewBox="0 0 38 24" fill="none" xmlns="http://www.w3.org/2000/svg">
<path d="M23.7916 6.86932C21.5435 6.86932 19.5345 8.03486 19.5345 10.1883C19.5345 12.6579 23.0975 12.8284 23.0975 14.0691C23.0975 14.5915 22.499 15.0591 21.4769 15.0591C20.0262 15.0591 18.9419 14.4057 18.9419 14.4057L18.478 16.5788C18.478 16.5788 19.727 17.1307 21.3853 17.1307C23.8432 17.1307 25.7772 15.9079 25.7772 13.7176C25.7772 11.1081 22.1994 10.9426 22.1994 9.79108C22.1994 9.38184 22.6906 8.93347 23.7099 8.93347C24.8599 8.93347 25.7982 9.40867 25.7982 9.40867L26.2522 7.30987C26.2522 7.30987 25.2313 6.86932 23.7916 6.86932ZM3.22387 7.02772L3.16943 7.34452C3.16943 7.34452 4.1152 7.51766 4.96702 7.86307C6.06382 8.25907 6.14192 8.48966 6.32667 9.20572L8.3395 16.9673H11.0377L15.1946 7.02772H12.5025L9.83153 13.7857L8.7416 8.05732C8.64161 7.40174 8.13531 7.02772 7.51558 7.02772H3.22387ZM16.2771 7.02772L14.1653 16.9673H16.7323L18.8368 7.02772H16.2771ZM30.5947 7.02772C29.9756 7.02772 29.6477 7.35926 29.407 7.93852L25.646 16.9673H28.3381L28.8589 15.4625H32.1386L32.4553 16.9673H34.8307L32.7584 7.02772H30.5947ZM30.9448 9.71308L31.7428 13.4429H29.6049L30.9448 9.71308Z" fill="#1434CB"/>
</svg>
