<svg width="38" height="24" viewBox="0 0 38 24" fill="none" xmlns="http://www.w3.org/2000/svg">
<path d="M22.6355 5.44919H15.343V18.5508H22.6355V5.44919Z" fill="#FF5A00"/>
<path d="M15.8286 12C15.8286 9.33816 17.0799 6.97565 19.0001 5.4492C17.5869 4.33809 15.8043 3.66656 13.8598 3.66656C9.25347 3.66656 5.52637 7.39368 5.52637 12C5.52637 16.6063 9.25347 20.3335 13.8598 20.3335C15.8043 20.3335 17.5869 19.6619 19.0001 18.5508C17.0772 17.0459 15.8286 14.6618 15.8286 12Z" fill="#EB001B"/>
<path d="M32.4742 12C32.4742 16.6063 28.7471 20.3335 24.1408 20.3335C22.1963 20.3335 20.4137 19.6619 19.0005 18.5508C20.945 17.0217 22.172 14.6618 22.172 12C22.172 9.33816 20.9207 6.97565 19.0005 5.4492C20.411 4.33809 22.1936 3.66656 24.1381 3.66656C28.7471 3.66656 32.4742 7.41797 32.4742 12Z" fill="#F79E1B"/>
</svg>
