<svg width="24" height="24" viewBox="0 0 24 24" fill="none" xmlns="http://www.w3.org/2000/svg">
    <g clip-path="url(#clip0_2_14)">
        <path d="M20 10C20.447 9 20.687 7.983 20.687 6.846C20.687 3.782 19.137 2 16.3 2C13.382 2 12.5 4.216 13 7C13.5 9.716 14.8 11.5 16.3 13C15.35 14.916 13.257 18.229 12 19.5C9 17.5 6.847 12.26 6 5.004H4C6 17 9.77 20.262 11 21C11.694 21.422 12.365 21.36 13 21C13.998 20.427 16.338 17.538 18 14C18.695 14 20.165 14.188 21 14V12C20.49 12.116 19.945 12.5 19.5 12.5C17 12.5 14.5 9.065 14.5 6C14.5 4.5 15.486 3.65213 16.3 3.65213C17.074 3.65213 18.5 4.154 19 5.5C19.5 6.846 19 8.5 18 9.5C18 9.5 17.893 10.416 20 10Z"/>
    </g>
    <defs>
        <clipPath id="clip0_2_14">
            <rect width="24" height="24" fill="white"/>
        </clipPath>
    </defs>
</svg>