<svg width="24" height="24" xmlns="http://www.w3.org/2000/svg"><path fill-rule="evenodd" clip-rule="evenodd" d="M12 23c6.075 0 11-4.925 11-11S18.075 1 12 1 1 5.925 1 12s4.925 11 11 11zm1.216-16.039V5.48h-2.102V7c-.32.058-.617.144-.89.255-.584.228-1.035.56-1.353.997-.31.438-.465.952-.465 1.545 0 1.585.916 2.569 2.747 2.951l1.339.287c.501.1.852.228 1.052.383.2.155.3.396.3.724 0 .337-.15.597-.45.78-.3.172-.693.259-1.175.259-.61 0-1.144-.141-1.6-.424-.446-.282-.81-.674-1.092-1.175L7.75 14.935c.374.665.938 1.189 1.695 1.571.501.245 1.058.41 1.669.494v1.514h2.102v-1.527c.406-.063.775-.164 1.107-.303.61-.264 1.075-.633 1.394-1.107.328-.474.492-1.025.492-1.653 0-.82-.223-1.458-.67-1.914-.437-.455-1.111-.783-2.022-.983l-1.449-.301c-.51-.119-.87-.26-1.08-.424-.209-.164-.314-.387-.314-.67 0-.282.128-.505.383-.669.264-.173.62-.26 1.066-.26.547 0 1.048.123 1.503.37.456.245.82.592 1.094 1.038l1.53-1.408c-.373-.592-.906-1.038-1.599-1.339-.44-.197-.918-.33-1.435-.403z"/></svg>