<svg width="24" height="24" xmlns="http://www.w3.org/2000/svg"><path d="M13.161 7.21V5.8h-2v1.446c-.304.056-.587.137-.847.243-.555.217-.984.533-1.287.95-.295.415-.442.905-.442 1.468 0 1.508.87 2.444 2.613 2.808l1.274.273c.477.096.81.217 1 .364.192.147.287.377.287.69 0 .32-.143.567-.43.74-.285.165-.658.247-1.117.247-.58 0-1.088-.134-1.521-.403-.425-.268-.771-.641-1.04-1.118l-1.69 1.287c.355.633.893 1.131 1.612 1.495.477.233 1.007.39 1.588.47v1.44h2v-1.452c.386-.06.737-.157 1.053-.289.58-.251 1.023-.602 1.326-1.053.312-.45.468-.975.468-1.573 0-.78-.212-1.386-.637-1.82-.416-.433-1.057-.745-1.924-.936l-1.378-.286c-.485-.113-.828-.247-1.027-.403-.2-.156-.3-.368-.3-.637 0-.268.122-.48.365-.637.251-.164.59-.247 1.014-.247.52 0 .997.117 1.43.351.433.234.78.564 1.04.988l1.456-1.339c-.355-.563-.862-.988-1.521-1.274-.418-.187-.873-.315-1.365-.383z"/><path fill-rule="evenodd" clip-rule="evenodd" d="M23 12c0 6.075-4.925 11-11 11S1 18.075 1 12 5.925 1 12 1s11 4.925 11 11zm-2 0c0 4.97-4.03 9-9 9s-9-4.03-9-9 4.03-9 9-9 9 4.03 9 9z"/></svg>