<svg width="24" height="24" viewBox="0 0 24 24" xmlns="http://www.w3.org/2000/svg">
<path d="M6.00002 6C6.00002 8.21 7.79102 10 10 10C12.209 10 14 8.21 14 6C14 3.79 12.209 2 10 2C7.79102 2 6.00002 3.79 6.00002 6ZM12 6C12 7.1 11.105 8 10 8C8.89502 8 8.00002 7.1 8.00002 6C8.00002 4.9 8.89502 4 10 4C11.105 4 12 4.9 12 6ZM18.495 19.9C18.229 17.24 17.34 15.02 15.863 13.44C14.373 11.85 12.352 11 10 11C7.64802 11 5.62702 11.85 4.13702 13.44C2.66002 15.02 1.77102 17.24 1.50502 19.9L1.39502 21H18.605L18.495 19.9ZM3.65102 19C3.98802 17.2 4.67402 15.79 5.59602 14.81C6.68302 13.65 8.16202 13 10 13C11.838 13 13.318 13.65 14.404 14.81C15.326 15.79 16.012 17.2 16.349 19H3.65102ZM23.457 6.96L21.414 9L23.457 11.04L22.043 12.46L20 10.41L17.957 12.46L16.543 11.04L18.586 9L16.543 6.96L17.957 5.54L20 7.59L22.043 5.54L23.457 6.96Z"/>
</svg>
