<svg width="24" height="24" viewBox="0 0 24 24" xmlns="http://www.w3.org/2000/svg">
<path d="M18.605 21H1.39502L1.50502 19.9C1.77102 17.24 2.66002 15.02 4.13702 13.44C5.62702 11.85 7.64802 11 10 11C12.352 11 14.373 11.85 15.863 13.44C17.34 15.02 18.229 17.24 18.495 19.9L18.605 21ZM22.043 5.54L20 7.59L17.957 5.54L16.543 6.96L18.586 9L16.543 11.04L17.957 12.46L20 10.41L22.043 12.46L23.457 11.04L21.414 9L23.457 6.96L22.043 5.54ZM6.00002 6C6.00002 8.21 7.79102 10 10 10C12.209 10 14 8.21 14 6C14 3.79 12.209 2 10 2C7.79102 2 6.00002 3.79 6.00002 6Z"/>
</svg>
