<?xml version="1.0" encoding="UTF-8"?>
<svg xmlns="http://www.w3.org/2000/svg" width="24" height="24" viewBox="0 0 24 24">
    <path d="M5 22H2v-3c0-1.654 1.346-3 3-3s3 1.346 3 3-1.346 3-3 3zm6.594-.718l-.336-1.145c-.271-.923-.664-1.807-1.166-2.627-.452-.736-.992-1.421-1.607-2.036-.626-.625-1.322-1.173-2.069-1.627-.821-.499-1.706-.888-2.63-1.157l-1.151-.335L5.312 7h5.192c.613-.636 2.015-2.077 2.758-2.744C15.673 2.09 20.704 2.003 20.918 2l1.025-.013-.013 1.025c-.003.213-.09 5.245-2.256 7.656-.643.715-2.004 2.043-2.671 2.688v5.239l-5.407 2.688h-.002zm.64-4.046c.207.396.393.802.557 1.217l2.21-1.099v-2.333l-2.768 2.214zM5.47 11.154c.414.163.819.347 1.214.551l2.165-2.706H6.548l-1.077 2.154z"/>
</svg>
