<svg width="24" height="24" viewBox="0 0 24 24" fill="none" xmlns="http://www.w3.org/2000/svg">
<path d="M3.57 7.14C5.34 4.07 8.66 2 12.46 2C18.12 2 22.71 6.59 22.71 12.25C22.71 17.91 18.12 22.5 12.46 22.5V20.5C17.02 20.5 20.71 16.81 20.71 12.25C20.71 7.69 17.02 4 12.46 4C9.3 4 6.55 5.78 5.16 8.4L7.55 7.34L8.37 9.16L2.83 11.62L1 5.54L2.92 4.96L3.57 7.14ZM13.46 11.84V8.25H11.46V12.66L15.25 16.46L16.67 15.04L13.46 11.84ZM3.84 17.79C3.19 16.79 2.72 15.67 2.45 14.47L4.4 14.03C4.62 15 5 15.9 5.52 16.71L3.84 17.79ZM9.14 21.95C7.9 21.53 6.78 20.88 5.81 20.05L7.11 18.53C7.89 19.2 8.79 19.72 9.78 20.06L9.14 21.95Z"/>
</svg>
