<svg fill="none" height="22" viewBox="0 0 22 22" width="22" xmlns="http://www.w3.org/2000/svg"><path d="m20.1666 11c-.017-.6306-.2092-1.244-.5551-1.77154s-.8319-.9484-1.4034-1.21543c.2169-.59249.264-1.23377.136-1.85159-.128-.6178-.426-1.1876-.8604-1.64517-.4576-.43439-1.0273-.73237-1.6452-.86035-.6177-.12799-1.259-.0809-1.8515.13596-.2659-.57235-.6865-1.05899-1.2143-1.40505s-1.1418-.53777-1.7727-.55349c-.6298.01594-1.24244.20783-1.76875.55396s-.94522.83268-1.20931 1.40458c-.59387-.2174-1.23663-.26479-1.85596-.13682-.61934.12798-1.19066.42624-1.64974.86121-.43314.45834-.72964 1.02859-.85605 1.64641-.12641.61784-.0777 1.25871.14061 1.85035-.57264.26652-1.05989.68701-1.40732 1.21449-.34744.52747-.54139 1.14118-.56017 1.77248.01878.6314.21273 1.245.56017 1.7725.34743.5275.83468.948 1.40732 1.2145-.21831.5917-.26702 1.2325-.14061 1.8503.12641.6179.42291 1.1881.85605 1.6464.45872.4325 1.02849.7293 1.64585.8572s1.25811.082 1.85091-.1328c.26704.5715.68789 1.0575 1.21543 1.4034s1.14087.5381 1.77157.5552c.6309-.0157 1.2449-.2074 1.7727-.5535.5278-.346.9484-.8327 1.2143-1.4051.59.2335 1.2353.2893 1.8566.1605.6213-.1287 1.1913-.4364 1.64-.885s.7563-1.0187.885-1.64c.1288-.6212.073-1.2666-.1605-1.8566.5715-.2671 1.0575-.6878 1.4034-1.2155.3459-.5275.5381-1.1408.5551-1.7715zm-10.47231 3.7561-3.34471-3.3447 1.26098-1.2699 2.02114 2.0211 4.2927-4.67722 1.3146 1.21626z" fill="#1d9bf0"/></svg>