<svg width="24" height="24" viewBox="-6 -6 36 36" fill="none" xmlns="http://www.w3.org/2000/svg">
<mask id="mask0_4_26" style="mask-type:luminance" maskUnits="userSpaceOnUse" x="2" y="2" width="20" height="20">
<path d="M21 2H3C2.44772 2 2 2.44772 2 3V21C2 21.5523 2.44772 22 3 22H21C21.5523 22 22 21.5523 22 21V3C22 2.44772 21.5523 2 21 2Z" fill="white"/>
</mask>
<g mask="url(#mask0_4_26)">
<path fill-rule="evenodd" clip-rule="evenodd" d="M18 3.5H6C4.95066 3.5 3.5 4.95066 3.5 6V18C3.5 19.0493 4.95066 20.5 6 20.5H18C19.0493 20.5 20.5 19.0493 20.5 18V6C20.5 4.95066 19.0493 3.5 18 3.5ZM6 2H18C20.2091 2 22 3.79086 22 6V18C22 20.2091 20.2091 22 18 22H6C3.79086 22 2 20.2091 2 18V6C2 3.79086 3.79086 2 6 2Z"/>
<path fill-rule="evenodd" clip-rule="evenodd" d="M8.30866 18C7.75607 18 7.43126 17.379 7.74646 16.9251L11.1667 12L15.1291 6.29405C15.257 6.10985 15.4671 6 15.6913 6V6C16.2439 6 16.5687 6.62102 16.2535 7.0749L12.8333 12L8.87087 17.7059C8.74295 17.8901 8.53292 18 8.30866 18V18Z"/>
</g>
</svg>
